<?xml version="1.0" encoding="utf-8" standalone="no"?>
<!DOCTYPE svg PUBLIC "-//W3C//DTD SVG 1.1//EN"
  "http://www.w3.org/Graphics/SVG/1.1/DTD/svg11.dtd">
<svg xmlns:xlink="http://www.w3.org/1999/xlink" width="576pt" height="432pt" viewBox="0 0 576 432" xmlns="http://www.w3.org/2000/svg" version="1.1">
 <metadata>
  <rdf:RDF xmlns:dc="http://purl.org/dc/elements/1.1/" xmlns:cc="http://creativecommons.org/ns#" xmlns:rdf="http://www.w3.org/1999/02/22-rdf-syntax-ns#">
   <cc:Work>
    <dc:type rdf:resource="http://purl.org/dc/dcmitype/StillImage"/>
    <dc:date>2024-11-04T01:02:11.258345</dc:date>
    <dc:format>image/svg+xml</dc:format>
    <dc:creator>
     <cc:Agent>
      <dc:title>Matplotlib v3.9.2, https://matplotlib.org/</dc:title>
     </cc:Agent>
    </dc:creator>
   </cc:Work>
  </rdf:RDF>
 </metadata>
 <defs>
  <style type="text/css">*{stroke-linejoin: round; stroke-linecap: butt}</style>
 </defs>
 <g id="figure_1">
  <g id="patch_1">
   <path d="M 0 432 
L 576 432 
L 576 0 
L 0 0 
z
" style="fill: #ffffff"/>
  </g>
  <g id="axes_1">
   <g id="patch_2">
    <path d="M 72 388.8 
L 518.4 388.8 
L 518.4 43.2 
L 72 43.2 
z
" style="fill: #ffffff"/>
   </g>
   <g id="line2d_1">
    <path d="M 72 72 
L 72.8928 77.080814 
L 73.7856 90.817316 
L 74.6784 112.280648 
L 75.5712 140.065663 
L 77.3568 207.172586 
L 79.1424 275.381287 
L 80.0352 304.54342 
L 80.928 327.930478 
L 81.8208 344.124473 
L 82.7136 352.168998 
L 83.6064 351.62541 
L 84.4992 342.596168 
L 85.392 325.714106 
L 86.2848 302.098592 
L 88.0704 241.108431 
L 89.856 174.922756 
L 90.7488 145.05755 
L 91.6416 119.871223 
L 92.5344 100.903128 
L 93.4272 89.291095 
L 94.32 85.703412 
L 95.2128 90.300723 
L 96.1056 102.730024 
L 96.9984 122.150849 
L 97.8912 147.29177 
L 99.6768 208.012625 
L 101.4624 269.73041 
L 102.3552 296.1174 
L 103.248 317.278884 
L 104.1408 331.931818 
L 105.0336 339.210805 
L 105.9264 338.718946 
L 106.8192 330.54895 
L 107.712 315.273428 
L 108.6048 293.905228 
L 110.3904 238.719048 
L 112.176 178.831773 
L 113.0688 151.808617 
L 113.9616 129.019086 
L 114.8544 111.856043 
L 115.7472 101.349042 
L 116.64 98.102772 
L 117.5328 102.262591 
L 118.4256 113.509087 
L 119.3184 131.081777 
L 120.2112 153.830223 
L 121.9968 208.772725 
L 123.7824 264.617286 
L 124.6752 288.493221 
L 125.568 307.640924 
L 126.4608 320.899447 
L 127.3536 327.485746 
L 128.2464 327.040694 
L 129.1392 319.648176 
L 130.032 305.826312 
L 130.9248 286.491565 
L 132.7104 236.557044 
L 134.496 182.368797 
L 135.3888 157.917234 
L 136.2816 137.296414 
L 137.1744 121.766651 
L 138.0672 112.259523 
L 138.96 109.322176 
L 139.8528 113.086136 
L 140.7456 123.262387 
L 141.6384 139.162814 
L 142.5312 159.746459 
L 144.3168 209.460491 
L 146.1024 259.990739 
L 146.9952 281.594579 
L 147.888 298.920137 
L 148.7808 310.916944 
L 149.6736 316.876475 
L 150.5664 316.473775 
L 151.4592 309.784748 
L 152.352 297.278209 
L 153.2448 279.783406 
L 155.0304 234.600783 
L 156.816 185.569229 
L 157.7088 163.44454 
L 158.6016 144.786051 
L 159.4944 130.73414 
L 160.3872 122.131735 
L 161.28 119.473913 
L 162.1728 122.879685 
L 163.0656 132.087538 
L 163.9584 146.474839 
L 164.8512 165.099691 
L 166.6368 210.082807 
L 168.4224 255.804467 
L 169.3152 275.35243 
L 170.208 291.029243 
L 171.1008 301.884403 
L 171.9936 307.276809 
L 172.8864 306.912431 
L 173.7792 300.859949 
L 174.672 289.543564 
L 175.5648 273.713612 
L 177.3504 232.830684 
L 179.136 188.4651 
L 180.0288 168.445854 
L 180.9216 151.562954 
L 181.8144 138.848259 
L 182.7072 131.064481 
L 183.6 128.659585 
L 184.4928 131.741255 
L 185.3856 140.072864 
L 186.2784 153.091033 
L 187.1712 169.943496 
L 188.9568 210.645903 
L 190.7424 252.016571 
L 191.6352 269.704299 
L 192.528 283.889267 
L 193.4208 293.711421 
L 194.3136 298.590672 
L 195.2064 298.260969 
L 196.0992 292.784457 
L 196.992 282.544969 
L 197.8848 268.221436 
L 199.6704 231.229033 
L 201.456 191.085392 
L 202.3488 172.971229 
L 203.2416 157.69495 
L 204.1344 146.190218 
L 205.0272 139.147165 
L 205.92 136.971124 
L 206.8128 139.759534 
L 207.7056 147.298286 
L 208.5984 159.077613 
L 209.4912 174.326352 
L 211.2768 211.155412 
L 213.0624 248.589141 
L 213.9552 264.593659 
L 214.848 277.428749 
L 215.7408 286.316202 
L 216.6336 290.731131 
L 217.5264 290.432803 
L 218.4192 285.47745 
L 219.312 276.212378 
L 220.2048 263.251909 
L 221.9904 229.779799 
L 223.776 193.456331 
L 224.6688 177.065958 
L 225.5616 163.243409 
L 226.4544 152.833497 
L 227.3472 146.460679 
L 228.24 144.491716 
L 229.1328 147.014774 
L 230.0256 153.836119 
L 230.9184 164.494494 
L 231.8112 178.292124 
L 233.5968 211.616436 
L 235.3824 245.487874 
L 236.2752 259.969361 
L 237.168 271.58303 
L 238.0608 279.624731 
L 238.9536 283.619523 
L 239.8464 283.349585 
L 240.7392 278.865797 
L 241.632 270.482413 
L 242.5248 258.755295 
L 244.3104 228.468478 
L 246.096 195.601644 
L 246.9888 180.771022 
L 247.8816 168.263862 
L 248.7744 158.844585 
L 249.6672 153.07822 
L 250.56 151.296629 
L 251.4528 153.579586 
L 252.3456 159.751794 
L 253.2384 169.395891 
L 254.1312 181.880503 
L 255.9168 212.033587 
L 257.7024 242.681732 
L 258.5952 255.785123 
L 259.488 266.293606 
L 260.3808 273.570037 
L 261.2736 277.184675 
L 262.1664 276.940425 
L 263.0592 272.883325 
L 263.952 265.297725 
L 264.8448 254.686591 
L 266.6304 227.281945 
L 268.416 197.542805 
L 269.3088 184.123502 
L 270.2016 172.806556 
L 271.0944 164.283642 
L 271.9872 159.066019 
L 272.88 157.453969 
L 273.7728 159.519674 
L 274.6656 165.104519 
L 275.5584 173.830858 
L 276.4512 185.127402 
L 278.2368 212.411041 
L 280.0224 240.14263 
L 280.9152 251.999068 
L 281.808 261.507536 
L 282.7008 268.091524 
L 283.5936 271.362183 
L 284.4864 271.141177 
L 285.3792 267.470161 
L 286.272 260.606427 
L 287.1648 251.005075 
L 288.9504 226.208326 
L 290.736 199.299239 
L 291.6288 187.156952 
L 292.5216 176.916956 
L 293.4144 169.205104 
L 294.3072 164.484004 
L 295.2 163.02536 
L 296.0928 164.894488 
L 296.9856 169.947864 
L 297.8784 177.843783 
L 298.7712 188.065318 
L 300.5568 212.752576 
L 302.3424 237.845155 
L 303.2352 248.573304 
L 304.128 257.176922 
L 305.0208 263.13436 
L 305.9136 266.093775 
L 306.8064 265.8938 
L 307.6992 262.572128 
L 308.592 256.361564 
L 309.4848 247.673902 
L 311.2704 225.236875 
L 313.056 200.888526 
L 313.9488 189.901731 
L 314.8416 180.636199 
L 315.7344 173.658227 
L 316.6272 169.386399 
L 317.52 168.066564 
L 318.4128 169.75782 
L 319.3056 174.330304 
L 320.1984 181.474827 
L 321.0912 190.723655 
L 322.8768 213.061609 
L 324.6624 235.766313 
L 325.5552 245.473544 
L 326.448 253.258419 
L 327.3408 258.648932 
L 328.2336 261.326722 
L 329.1264 261.145777 
L 330.0192 258.140204 
L 330.912 252.520653 
L 331.8048 244.659732 
L 333.5904 224.357871 
L 335.376 202.326573 
L 336.2688 192.38531 
L 337.1616 184.00151 
L 338.0544 177.687579 
L 338.9472 173.82227 
L 339.84 172.628033 
L 340.7328 174.158345 
L 341.6256 178.2957 
L 342.5184 184.760331 
L 343.4112 193.129017 
L 345.1968 213.341234 
L 346.9824 233.8853 
L 347.8752 242.668766 
L 348.768 249.712812 
L 349.6608 254.59035 
L 350.5536 257.013314 
L 351.4464 256.849588 
L 352.3392 254.130033 
L 353.232 249.045254 
L 354.1248 241.932398 
L 355.9104 223.562514 
L 357.696 203.627772 
L 358.5888 194.632545 
L 359.4816 187.046569 
L 360.3744 181.333488 
L 361.2672 177.836011 
L 362.16 176.755422 
L 363.0528 178.140105 
L 363.9456 181.883739 
L 364.8384 187.733179 
L 365.7312 195.305479 
L 367.5168 213.594249 
L 369.3024 232.183289 
L 370.1952 240.130897 
L 371.088 246.504614 
L 371.9808 250.917992 
L 372.8736 253.110381 
L 373.7664 252.962236 
L 374.6592 250.501481 
L 375.552 245.900582 
L 376.4448 239.464604 
L 378.2304 222.842846 
L 380.016 204.805145 
L 380.9088 196.665927 
L 381.8016 189.801852 
L 382.6944 184.632443 
L 383.5872 181.467795 
L 384.48 180.490037 
L 385.3728 181.742951 
L 386.2656 185.13033 
L 387.1584 190.423123 
L 388.0512 197.274823 
L 389.8368 213.823186 
L 391.6224 230.643245 
L 392.5152 237.834539 
L 393.408 243.601716 
L 394.3008 247.595106 
L 395.1936 249.578862 
L 396.0864 249.444814 
L 396.9792 247.218231 
L 397.872 243.055165 
L 398.7648 237.231651 
L 400.5504 222.191663 
L 402.336 205.870476 
L 403.2288 198.505807 
L 404.1216 192.294936 
L 405.0144 187.617461 
L 405.9072 184.753969 
L 406.8 183.869257 
L 407.6928 185.00294 
L 408.5856 188.067968 
L 409.4784 192.857084 
L 410.3712 199.056759 
L 412.1568 214.030338 
L 413.9424 229.249756 
L 414.8352 235.756708 
L 415.728 240.975065 
L 416.6208 244.588434 
L 417.5136 246.38341 
L 418.4064 246.262119 
L 419.2992 244.247423 
L 420.192 240.480526 
L 421.0848 235.211193 
L 422.8704 221.602448 
L 424.656 206.834428 
L 425.5488 200.1706 
L 426.4416 194.550771 
L 427.3344 190.318416 
L 428.2272 187.727422 
L 429.12 186.926901 
L 430.0128 187.9527 
L 430.9056 190.726052 
L 431.7984 195.059424 
L 432.6912 200.669122 
L 434.4768 214.217776 
L 436.2624 227.988875 
L 437.1552 233.876608 
L 438.048 238.598374 
L 438.9408 241.867885 
L 439.8336 243.492047 
L 440.7264 243.382298 
L 441.6192 241.559325 
L 442.512 238.150896 
L 443.4048 233.383006 
L 445.1904 221.069305 
L 446.976 207.706647 
L 447.8688 201.676966 
L 448.7616 196.591935 
L 449.6544 192.762342 
L 450.5472 190.417913 
L 451.44 189.693573 
L 452.3328 190.621754 
L 453.2256 193.131186 
L 454.1184 197.052183 
L 455.0112 202.128048 
L 456.7968 214.387377 
L 458.5824 226.847983 
L 459.4752 232.175424 
L 460.368 236.447854 
L 461.2608 239.40623 
L 462.1536 240.875832 
L 463.0464 240.776528 
L 463.9392 239.127034 
L 464.832 236.042959 
L 465.7248 231.728794 
L 467.5104 220.586897 
L 469.296 208.495864 
L 470.1888 203.039983 
L 471.0816 198.438856 
L 471.9744 194.973698 
L 472.8672 192.852371 
L 473.76 192.19696 
L 474.6528 193.036813 
L 475.5456 195.307442 
L 476.4384 198.855306 
L 477.3312 203.448138 
L 479.1168 214.540838 
L 480.9024 225.815661 
L 481.7952 230.636129 
L 482.688 234.501984 
L 483.5808 237.178833 
L 484.4736 238.508584 
L 485.3664 238.418729 
L 486.2592 236.926206 
L 487.152 234.13562 
L 488.0448 230.232002 
L 489.8304 220.150396 
L 491.616 209.209977 
L 492.5088 204.273292 
L 493.4016 200.11002 
L 494.2944 196.974615 
L 495.1872 195.055159 
L 496.08 194.462119 
L 496.9728 195.222049 
L 497.8656 197.276599 
L 498.7584 200.48684 
L 499.6512 204.642606 
L 501.4368 214.679696 
L 503.2224 224.881577 
L 504.1152 229.243317 
L 505.008 232.741287 
L 505.9008 235.163401 
L 506.7936 236.366609 
L 507.6864 236.285305 
L 508.5792 234.934814 
L 509.472 232.409787 
L 510.3648 228.877648 
L 512.1504 219.755433 
L 513.936 209.856133 
L 514.8288 205.389236 
L 515.7216 201.622152 
L 516.6144 198.78512 
L 517.5072 197.048324 
L 518.4 196.511719 
L 518.4 196.511719 
" clip-path="url(#p09d30031bd)" style="fill: none; stroke: #ff0000; stroke-linecap: square"/>
   </g>
   <g id="patch_3">
    <path d="M 72 388.8 
L 72 43.2 
" style="fill: none; stroke: #000000; stroke-linejoin: miter; stroke-linecap: square"/>
   </g>
   <g id="patch_4">
    <path d="M 518.4 388.8 
L 518.4 43.2 
" style="fill: none; stroke: #000000; stroke-linejoin: miter; stroke-linecap: square"/>
   </g>
   <g id="patch_5">
    <path d="M 72 388.8 
L 518.4 388.8 
" style="fill: none; stroke: #000000; stroke-linejoin: miter; stroke-linecap: square"/>
   </g>
   <g id="patch_6">
    <path d="M 72 43.2 
L 518.4 43.2 
" style="fill: none; stroke: #000000; stroke-linejoin: miter; stroke-linecap: square"/>
   </g>
   <g id="matplotlib.axis_1">
    <g id="xtick_1">
     <g id="line2d_2">
      <path d="M 72 388.8 
L 72 43.2 
" clip-path="url(#p09d30031bd)" style="fill: none; stroke-dasharray: 1,3; stroke-dashoffset: 0; stroke: #000000; stroke-width: 0.5"/>
     </g>
     <g id="line2d_3">
      <defs>
       <path id="mc709c923f7" d="M 0 0 
L 0 -4 
" style="stroke: #000000; stroke-width: 0.5"/>
      </defs>
      <g>
       <use xlink:href="#mc709c923f7" x="72" y="388.8" style="stroke: #000000; stroke-width: 0.5"/>
      </g>
     </g>
     <g id="line2d_4">
      <defs>
       <path id="m5d07f13317" d="M 0 0 
L 0 4 
" style="stroke: #000000; stroke-width: 0.5"/>
      </defs>
      <g>
       <use xlink:href="#m5d07f13317" x="72" y="43.2" style="stroke: #000000; stroke-width: 0.5"/>
      </g>
     </g>
     <g id="text_1">
      <!-- $\mathdefault{0}$ -->
      <g transform="translate(69.073505 401.67065) scale(0.12 -0.12)">
       <defs>
        <path id="CMR17-30" d="M 2688 2025 
C 2688 2416 2682 3080 2413 3591 
C 2176 4039 1798 4198 1466 4198 
C 1158 4198 768 4058 525 3597 
C 269 3118 243 2524 243 2025 
C 243 1661 250 1106 448 619 
C 723 -39 1216 -128 1466 -128 
C 1760 -128 2208 -7 2470 600 
C 2662 1042 2688 1559 2688 2025 
z
M 1466 -26 
C 1056 -26 813 325 723 812 
C 653 1188 653 1738 653 2096 
C 653 2588 653 2997 736 3387 
C 858 3929 1216 4096 1466 4096 
C 1728 4096 2067 3923 2189 3400 
C 2272 3036 2278 2607 2278 2096 
C 2278 1680 2278 1169 2202 792 
C 2067 95 1690 -26 1466 -26 
z
" transform="scale(0.015625)"/>
       </defs>
       <use xlink:href="#CMR17-30" transform="scale(0.996264)"/>
      </g>
     </g>
    </g>
    <g id="xtick_2">
     <g id="line2d_5">
      <path d="M 183.6 388.8 
L 183.6 43.2 
" clip-path="url(#p09d30031bd)" style="fill: none; stroke-dasharray: 1,3; stroke-dashoffset: 0; stroke: #000000; stroke-width: 0.5"/>
     </g>
     <g id="line2d_6">
      <g>
       <use xlink:href="#mc709c923f7" x="183.6" y="388.8" style="stroke: #000000; stroke-width: 0.5"/>
      </g>
     </g>
     <g id="line2d_7">
      <g>
       <use xlink:href="#m5d07f13317" x="183.6" y="43.2" style="stroke: #000000; stroke-width: 0.5"/>
      </g>
     </g>
     <g id="text_2">
      <!-- $\mathdefault{5}$ -->
      <g transform="translate(180.673505 401.67065) scale(0.12 -0.12)">
       <defs>
        <path id="CMR17-35" d="M 730 3692 
C 794 3666 1056 3584 1325 3584 
C 1920 3584 2246 3911 2432 4100 
C 2432 4157 2432 4192 2394 4192 
C 2387 4192 2374 4192 2323 4163 
C 2099 4058 1837 3973 1517 3973 
C 1325 3973 1037 3999 723 4139 
C 653 4171 640 4171 634 4171 
C 602 4171 595 4164 595 4037 
L 595 2203 
C 595 2089 595 2057 659 2057 
C 691 2057 704 2070 736 2114 
C 941 2401 1222 2522 1542 2522 
C 1766 2522 2246 2382 2246 1289 
C 2246 1085 2246 715 2054 421 
C 1894 159 1645 25 1370 25 
C 947 25 518 320 403 814 
C 429 807 480 795 506 795 
C 589 795 749 840 749 1038 
C 749 1210 627 1280 506 1280 
C 358 1280 262 1190 262 1011 
C 262 454 704 -128 1382 -128 
C 2042 -128 2669 440 2669 1264 
C 2669 2030 2170 2624 1549 2624 
C 1222 2624 947 2503 730 2274 
L 730 3692 
z
" transform="scale(0.015625)"/>
       </defs>
       <use xlink:href="#CMR17-35" transform="scale(0.996264)"/>
      </g>
     </g>
    </g>
    <g id="xtick_3">
     <g id="line2d_8">
      <path d="M 295.2 388.8 
L 295.2 43.2 
" clip-path="url(#p09d30031bd)" style="fill: none; stroke-dasharray: 1,3; stroke-dashoffset: 0; stroke: #000000; stroke-width: 0.5"/>
     </g>
     <g id="line2d_9">
      <g>
       <use xlink:href="#mc709c923f7" x="295.2" y="388.8" style="stroke: #000000; stroke-width: 0.5"/>
      </g>
     </g>
     <g id="line2d_10">
      <g>
       <use xlink:href="#m5d07f13317" x="295.2" y="43.2" style="stroke: #000000; stroke-width: 0.5"/>
      </g>
     </g>
     <g id="text_3">
      <!-- $\mathdefault{10}$ -->
      <g transform="translate(289.34701 401.67065) scale(0.12 -0.12)">
       <defs>
        <path id="CMR17-31" d="M 1702 4058 
C 1702 4192 1696 4192 1606 4192 
C 1357 3916 979 3827 621 3827 
C 602 3827 570 3827 563 3808 
C 557 3795 557 3782 557 3648 
C 755 3648 1088 3686 1344 3839 
L 1344 461 
C 1344 236 1331 160 781 160 
L 589 160 
L 589 0 
C 896 0 1216 0 1523 0 
C 1830 0 2150 0 2458 0 
L 2458 160 
L 2266 160 
C 1715 160 1702 230 1702 458 
L 1702 4058 
z
" transform="scale(0.015625)"/>
       </defs>
       <use xlink:href="#CMR17-31" transform="scale(0.996264)"/>
       <use xlink:href="#CMR17-30" transform="translate(45.690477 0) scale(0.996264)"/>
      </g>
     </g>
    </g>
    <g id="xtick_4">
     <g id="line2d_11">
      <path d="M 406.8 388.8 
L 406.8 43.2 
" clip-path="url(#p09d30031bd)" style="fill: none; stroke-dasharray: 1,3; stroke-dashoffset: 0; stroke: #000000; stroke-width: 0.5"/>
     </g>
     <g id="line2d_12">
      <g>
       <use xlink:href="#mc709c923f7" x="406.8" y="388.8" style="stroke: #000000; stroke-width: 0.5"/>
      </g>
     </g>
     <g id="line2d_13">
      <g>
       <use xlink:href="#m5d07f13317" x="406.8" y="43.2" style="stroke: #000000; stroke-width: 0.5"/>
      </g>
     </g>
     <g id="text_4">
      <!-- $\mathdefault{15}$ -->
      <g transform="translate(400.94701 401.67065) scale(0.12 -0.12)">
       <use xlink:href="#CMR17-31" transform="scale(0.996264)"/>
       <use xlink:href="#CMR17-35" transform="translate(45.690477 0) scale(0.996264)"/>
      </g>
     </g>
    </g>
    <g id="xtick_5">
     <g id="line2d_14">
      <path d="M 518.4 388.8 
L 518.4 43.2 
" clip-path="url(#p09d30031bd)" style="fill: none; stroke-dasharray: 1,3; stroke-dashoffset: 0; stroke: #000000; stroke-width: 0.5"/>
     </g>
     <g id="line2d_15">
      <g>
       <use xlink:href="#mc709c923f7" x="518.4" y="388.8" style="stroke: #000000; stroke-width: 0.5"/>
      </g>
     </g>
     <g id="line2d_16">
      <g>
       <use xlink:href="#m5d07f13317" x="518.4" y="43.2" style="stroke: #000000; stroke-width: 0.5"/>
      </g>
     </g>
     <g id="text_5">
      <!-- $\mathdefault{20}$ -->
      <g transform="translate(512.54701 401.67065) scale(0.12 -0.12)">
       <defs>
        <path id="CMR17-32" d="M 2669 989 
L 2554 989 
C 2490 536 2438 459 2413 420 
C 2381 369 1920 369 1830 369 
L 602 369 
C 832 619 1280 1072 1824 1597 
C 2214 1967 2669 2402 2669 3035 
C 2669 3790 2067 4224 1395 4224 
C 691 4224 262 3604 262 3030 
C 262 2780 448 2748 525 2748 
C 589 2748 781 2787 781 3010 
C 781 3207 614 3264 525 3264 
C 486 3264 448 3258 422 3245 
C 544 3790 915 4058 1306 4058 
C 1862 4058 2227 3617 2227 3035 
C 2227 2479 1901 2000 1536 1584 
L 262 146 
L 262 0 
L 2515 0 
L 2669 989 
z
" transform="scale(0.015625)"/>
       </defs>
       <use xlink:href="#CMR17-32" transform="scale(0.996264)"/>
       <use xlink:href="#CMR17-30" transform="translate(45.690477 0) scale(0.996264)"/>
      </g>
     </g>
    </g>
    <g id="text_6">
     <!-- $t$ -->
     <g transform="translate(292.734157 419.29117) scale(0.14 -0.14)">
      <defs>
       <path id="CMMI12-74" d="M 1286 2566 
L 1875 2566 
C 1997 2566 2061 2566 2061 2681 
C 2061 2752 2022 2752 1894 2752 
L 1331 2752 
L 1568 3692 
C 1594 3781 1594 3794 1594 3840 
C 1594 3943 1510 4000 1427 4000 
C 1376 4000 1229 3981 1178 3775 
L 928 2752 
L 326 2752 
C 198 2752 141 2752 141 2630 
C 141 2566 186 2566 307 2566 
L 877 2566 
L 454 881 
C 403 658 384 594 384 511 
C 384 211 595 -64 954 -64 
C 1600 -64 1946 868 1946 912 
C 1946 951 1920 970 1882 970 
C 1869 970 1843 970 1830 944 
C 1824 938 1818 931 1773 829 
C 1638 511 1344 64 973 64 
C 781 64 768 224 768 364 
C 768 370 768 492 787 568 
L 1286 2566 
z
" transform="scale(0.015625)"/>
      </defs>
      <use xlink:href="#CMMI12-74" transform="scale(0.996264)"/>
     </g>
    </g>
   </g>
   <g id="matplotlib.axis_2">
    <g id="ytick_1">
     <g id="line2d_17">
      <path d="M 72 388.8 
L 518.4 388.8 
" clip-path="url(#p09d30031bd)" style="fill: none; stroke-dasharray: 1,3; stroke-dashoffset: 0; stroke: #000000; stroke-width: 0.5"/>
     </g>
     <g id="line2d_18">
      <defs>
       <path id="mbf91c77903" d="M 0 0 
L 4 0 
" style="stroke: #000000; stroke-width: 0.5"/>
      </defs>
      <g>
       <use xlink:href="#mbf91c77903" x="72" y="388.8" style="stroke: #000000; stroke-width: 0.5"/>
      </g>
     </g>
     <g id="line2d_19">
      <defs>
       <path id="m92254427b9" d="M 0 0 
L -4 0 
" style="stroke: #000000; stroke-width: 0.5"/>
      </defs>
      <g>
       <use xlink:href="#m92254427b9" x="518.4" y="388.8" style="stroke: #000000; stroke-width: 0.5"/>
      </g>
     </g>
     <g id="text_7">
      <!-- $\mathdefault{−6}$ -->
      <g transform="translate(52.84852 392.099608) scale(0.12 -0.12)">
       <defs>
        <path id="CMSY10-0" d="M 4218 1472 
C 4326 1472 4442 1472 4442 1600 
C 4442 1728 4326 1728 4218 1728 
L 755 1728 
C 646 1728 531 1728 531 1600 
C 531 1472 646 1472 755 1472 
L 4218 1472 
z
" transform="scale(0.015625)"/>
        <path id="CMR17-36" d="M 678 2176 
C 678 3690 1395 4032 1811 4032 
C 1946 4032 2272 4009 2400 3776 
C 2298 3776 2106 3776 2106 3553 
C 2106 3381 2246 3323 2336 3323 
C 2394 3323 2566 3348 2566 3560 
C 2566 3954 2246 4179 1805 4179 
C 1043 4179 243 3390 243 1984 
C 243 253 966 -128 1478 -128 
C 2099 -128 2688 427 2688 1283 
C 2688 2081 2170 2662 1517 2662 
C 1126 2662 838 2407 678 1960 
L 678 2176 
z
M 1478 25 
C 691 25 691 1200 691 1436 
C 691 1896 909 2560 1504 2560 
C 1613 2560 1926 2560 2138 2120 
C 2253 1870 2253 1609 2253 1289 
C 2253 944 2253 690 2118 434 
C 1978 171 1773 25 1478 25 
z
" transform="scale(0.015625)"/>
       </defs>
       <use xlink:href="#CMSY10-0" transform="scale(0.996264)"/>
       <use xlink:href="#CMR17-36" transform="translate(77.487468 0) scale(0.996264)"/>
      </g>
     </g>
    </g>
    <g id="ytick_2">
     <g id="line2d_20">
      <path d="M 72 331.2 
L 518.4 331.2 
" clip-path="url(#p09d30031bd)" style="fill: none; stroke-dasharray: 1,3; stroke-dashoffset: 0; stroke: #000000; stroke-width: 0.5"/>
     </g>
     <g id="line2d_21">
      <g>
       <use xlink:href="#mbf91c77903" x="72" y="331.2" style="stroke: #000000; stroke-width: 0.5"/>
      </g>
     </g>
     <g id="line2d_22">
      <g>
       <use xlink:href="#m92254427b9" x="518.4" y="331.2" style="stroke: #000000; stroke-width: 0.5"/>
      </g>
     </g>
     <g id="text_8">
      <!-- $\mathdefault{−4}$ -->
      <g transform="translate(52.84852 334.499608) scale(0.12 -0.12)">
       <defs>
        <path id="CMR17-34" d="M 2150 4122 
C 2150 4256 2144 4256 2029 4256 
L 128 1254 
L 128 1088 
L 1779 1088 
L 1779 457 
C 1779 224 1766 160 1318 160 
L 1197 160 
L 1197 0 
C 1402 0 1747 0 1965 0 
C 2182 0 2528 0 2733 0 
L 2733 160 
L 2611 160 
C 2163 160 2150 224 2150 457 
L 2150 1088 
L 2803 1088 
L 2803 1254 
L 2150 1254 
L 2150 4122 
z
M 1798 3703 
L 1798 1254 
L 256 1254 
L 1798 3703 
z
" transform="scale(0.015625)"/>
       </defs>
       <use xlink:href="#CMSY10-0" transform="scale(0.996264)"/>
       <use xlink:href="#CMR17-34" transform="translate(77.487468 0) scale(0.996264)"/>
      </g>
     </g>
    </g>
    <g id="ytick_3">
     <g id="line2d_23">
      <path d="M 72 273.6 
L 518.4 273.6 
" clip-path="url(#p09d30031bd)" style="fill: none; stroke-dasharray: 1,3; stroke-dashoffset: 0; stroke: #000000; stroke-width: 0.5"/>
     </g>
     <g id="line2d_24">
      <g>
       <use xlink:href="#mbf91c77903" x="72" y="273.6" style="stroke: #000000; stroke-width: 0.5"/>
      </g>
     </g>
     <g id="line2d_25">
      <g>
       <use xlink:href="#m92254427b9" x="518.4" y="273.6" style="stroke: #000000; stroke-width: 0.5"/>
      </g>
     </g>
     <g id="text_9">
      <!-- $\mathdefault{−2}$ -->
      <g transform="translate(52.84852 276.899608) scale(0.12 -0.12)">
       <use xlink:href="#CMSY10-0" transform="scale(0.996264)"/>
       <use xlink:href="#CMR17-32" transform="translate(77.487468 0) scale(0.996264)"/>
      </g>
     </g>
    </g>
    <g id="ytick_4">
     <g id="line2d_26">
      <path d="M 72 216 
L 518.4 216 
" clip-path="url(#p09d30031bd)" style="fill: none; stroke-dasharray: 1,3; stroke-dashoffset: 0; stroke: #000000; stroke-width: 0.5"/>
     </g>
     <g id="line2d_27">
      <g>
       <use xlink:href="#mbf91c77903" x="72" y="216" style="stroke: #000000; stroke-width: 0.5"/>
      </g>
     </g>
     <g id="line2d_28">
      <g>
       <use xlink:href="#m92254427b9" x="518.4" y="216" style="stroke: #000000; stroke-width: 0.5"/>
      </g>
     </g>
     <g id="text_10">
      <!-- $\mathdefault{0}$ -->
      <g transform="translate(62.14701 219.299608) scale(0.12 -0.12)">
       <use xlink:href="#CMR17-30" transform="scale(0.996264)"/>
      </g>
     </g>
    </g>
    <g id="ytick_5">
     <g id="line2d_29">
      <path d="M 72 158.4 
L 518.4 158.4 
" clip-path="url(#p09d30031bd)" style="fill: none; stroke-dasharray: 1,3; stroke-dashoffset: 0; stroke: #000000; stroke-width: 0.5"/>
     </g>
     <g id="line2d_30">
      <g>
       <use xlink:href="#mbf91c77903" x="72" y="158.4" style="stroke: #000000; stroke-width: 0.5"/>
      </g>
     </g>
     <g id="line2d_31">
      <g>
       <use xlink:href="#m92254427b9" x="518.4" y="158.4" style="stroke: #000000; stroke-width: 0.5"/>
      </g>
     </g>
     <g id="text_11">
      <!-- $\mathdefault{2}$ -->
      <g transform="translate(62.14701 161.699608) scale(0.12 -0.12)">
       <use xlink:href="#CMR17-32" transform="scale(0.996264)"/>
      </g>
     </g>
    </g>
    <g id="ytick_6">
     <g id="line2d_32">
      <path d="M 72 100.8 
L 518.4 100.8 
" clip-path="url(#p09d30031bd)" style="fill: none; stroke-dasharray: 1,3; stroke-dashoffset: 0; stroke: #000000; stroke-width: 0.5"/>
     </g>
     <g id="line2d_33">
      <g>
       <use xlink:href="#mbf91c77903" x="72" y="100.8" style="stroke: #000000; stroke-width: 0.5"/>
      </g>
     </g>
     <g id="line2d_34">
      <g>
       <use xlink:href="#m92254427b9" x="518.4" y="100.8" style="stroke: #000000; stroke-width: 0.5"/>
      </g>
     </g>
     <g id="text_12">
      <!-- $\mathdefault{4}$ -->
      <g transform="translate(62.14701 104.099608) scale(0.12 -0.12)">
       <use xlink:href="#CMR17-34" transform="scale(0.996264)"/>
      </g>
     </g>
    </g>
    <g id="ytick_7">
     <g id="line2d_35">
      <path d="M 72 43.2 
L 518.4 43.2 
" clip-path="url(#p09d30031bd)" style="fill: none; stroke-dasharray: 1,3; stroke-dashoffset: 0; stroke: #000000; stroke-width: 0.5"/>
     </g>
     <g id="line2d_36">
      <g>
       <use xlink:href="#mbf91c77903" x="72" y="43.2" style="stroke: #000000; stroke-width: 0.5"/>
      </g>
     </g>
     <g id="line2d_37">
      <g>
       <use xlink:href="#m92254427b9" x="518.4" y="43.2" style="stroke: #000000; stroke-width: 0.5"/>
      </g>
     </g>
     <g id="text_13">
      <!-- $\mathdefault{6}$ -->
      <g transform="translate(62.14701 46.499608) scale(0.12 -0.12)">
       <use xlink:href="#CMR17-36" transform="scale(0.996264)"/>
      </g>
     </g>
    </g>
    <g id="text_14">
     <!-- $u(t)$ -->
     <g transform="translate(44.361596 227.663309) rotate(-90) scale(0.14 -0.14)">
      <defs>
       <path id="CMMI12-75" d="M 2182 370 
C 2266 13 2573 -64 2726 -64 
C 2931 -64 3085 70 3187 287 
C 3296 517 3379 894 3379 913 
C 3379 945 3354 971 3315 971 
C 3258 971 3251 939 3226 843 
C 3110 402 2995 64 2739 64 
C 2547 64 2547 275 2547 358 
C 2547 505 2566 568 2630 837 
C 2675 1009 2720 1181 2758 1360 
L 3021 2401 
C 3066 2561 3066 2574 3066 2593 
C 3066 2689 2989 2753 2893 2753 
C 2707 2753 2662 2593 2624 2433 
C 2560 2184 2214 811 2170 588 
C 2163 588 1914 64 1446 64 
C 1114 64 1050 351 1050 588 
C 1050 952 1229 1462 1395 1890 
C 1472 2095 1504 2178 1504 2305 
C 1504 2580 1306 2816 998 2816 
C 410 2816 173 1890 173 1839 
C 173 1814 198 1782 243 1782 
C 301 1782 307 1807 333 1896 
C 486 2441 736 2682 979 2682 
C 1043 2682 1146 2682 1146 2478 
C 1146 2312 1075 2127 979 1884 
C 698 1124 666 881 666 690 
C 666 38 1158 -64 1421 -64 
C 1830 -64 2054 217 2182 370 
z
" transform="scale(0.015625)"/>
       <path id="CMR17-28" d="M 1958 -1561 
C 1958 -1555 1958 -1542 1939 -1523 
C 1645 -1224 858 -407 858 1581 
C 858 3569 1632 4379 1946 4697 
C 1946 4704 1958 4717 1958 4736 
C 1958 4755 1939 4768 1914 4768 
C 1843 4768 1299 4296 986 3594 
C 666 2887 576 2199 576 1588 
C 576 1128 621 351 1005 -471 
C 1312 -1135 1837 -1600 1914 -1600 
C 1946 -1600 1958 -1587 1958 -1561 
z
" transform="scale(0.015625)"/>
       <path id="CMR17-29" d="M 1683 1581 
C 1683 2040 1638 2817 1254 3639 
C 947 4303 422 4768 346 4768 
C 326 4768 301 4761 301 4729 
C 301 4717 307 4710 314 4697 
C 621 4378 1402 3568 1402 1584 
C 1402 -407 627 -1217 314 -1537 
C 307 -1549 301 -1556 301 -1568 
C 301 -1600 326 -1600 346 -1600 
C 416 -1600 960 -1128 1274 -426 
C 1594 281 1683 969 1683 1581 
z
" transform="scale(0.015625)"/>
      </defs>
      <use xlink:href="#CMMI12-75" transform="scale(0.996264)"/>
      <use xlink:href="#CMR17-28" transform="translate(55.52033 0) scale(0.996264)"/>
      <use xlink:href="#CMMI12-74" transform="translate(90.801097 0) scale(0.996264)"/>
      <use xlink:href="#CMR17-29" transform="translate(126.027428 0) scale(0.996264)"/>
     </g>
    </g>
   </g>
   <g id="text_15">
    <!-- A = 5.0, b = 0.1, w = 6.283185307179586 -->
    <g transform="translate(165.432744 38.2) scale(0.14 -0.14)">
     <defs>
      <path id="CenturySchL-Roma-41" d="M 2419 4704 
L 2150 4704 
L 678 977 
C 550 645 525 600 429 498 
C 326 377 147 300 -26 300 
L -51 300 
L -51 0 
L 1645 0 
L 1645 300 
L 1517 300 
C 1171 300 998 424 998 669 
C 998 747 1018 837 1056 941 
L 1267 1511 
L 2963 1511 
L 3309 644 
C 3347 546 3360 501 3360 468 
C 3360 365 3200 300 2963 300 
L 2694 300 
L 2694 0 
L 4678 0 
L 4678 300 
L 4589 300 
C 4269 300 4198 351 4051 709 
L 2419 4704 
z
M 2106 3670 
L 2829 1856 
L 1395 1856 
L 2106 3670 
z
" transform="scale(0.015625)"/>
      <path id="CenturySchL-Roma-3d" d="M 326 704 
L 3552 704 
L 3552 1215 
L 326 1215 
L 326 704 
z
M 326 1985 
L 3552 1985 
L 3552 2496 
L 326 2496 
L 326 1985 
z
" transform="scale(0.015625)"/>
      <path id="CenturySchL-Roma-35" d="M 1050 3821 
C 1395 3738 1574 3712 1824 3712 
C 2368 3712 2765 3904 2976 4255 
C 3046 4377 3072 4434 3072 4485 
C 3072 4524 3053 4543 3021 4543 
C 3002 4543 2970 4536 2938 4517 
C 2624 4383 2451 4351 2086 4351 
C 1677 4351 1440 4383 768 4543 
C 742 4008 685 3327 595 2538 
C 461 2398 416 2315 416 2213 
C 416 2086 499 1997 621 1997 
C 781 1997 883 2133 909 2391 
C 1133 2553 1344 2624 1600 2624 
C 2170 2624 2515 2178 2515 1440 
C 2515 1007 2406 637 2214 437 
C 2086 301 1824 211 1562 211 
C 1178 211 781 411 781 612 
C 781 658 819 709 896 754 
C 1094 877 1152 962 1152 1136 
C 1152 1363 979 1537 749 1537 
C 493 1537 288 1298 288 995 
C 288 672 474 349 762 149 
C 979 7 1242 -64 1574 -64 
C 2579 -64 3213 530 3213 1479 
C 3213 2357 2630 2944 1766 2944 
C 1498 2944 1293 2899 941 2752 
L 1050 3821 
z
" transform="scale(0.015625)"/>
      <path id="CenturySchL-Roma-2e" d="M 877 734 
C 653 734 474 555 474 338 
C 474 114 653 -64 870 -64 
C 1094 -64 1274 114 1274 338 
C 1274 555 1094 734 877 734 
z
" transform="scale(0.015625)"/>
      <path id="CenturySchL-Roma-30" d="M 1818 4544 
C 922 4544 269 3564 269 2224 
C 269 904 902 -64 1766 -64 
C 2662 -64 3290 872 3290 2204 
C 3290 2884 3149 3448 2880 3890 
C 2630 4294 2221 4544 1818 4544 
z
M 1773 4269 
C 1984 4269 2189 4128 2342 3872 
C 2515 3576 2573 3198 2573 2320 
C 2573 1422 2528 1000 2400 717 
C 2253 403 2022 211 1779 211 
C 1568 211 1363 352 1210 608 
C 1030 910 979 1314 979 2359 
C 979 3103 1024 3480 1152 3756 
C 1299 4083 1530 4269 1773 4269 
z
" transform="scale(0.015625)"/>
      <path id="CenturySchL-Roma-2c" d="M 557 -1163 
C 1126 -773 1395 -384 1395 63 
C 1395 447 1184 696 870 696 
C 634 696 454 530 454 313 
C 454 83 627 -64 890 -64 
C 915 -64 979 -64 992 -58 
L 1011 -58 
C 1043 -58 1056 -77 1056 -115 
C 1056 -384 838 -684 410 -984 
L 557 -1163 
z
" transform="scale(0.015625)"/>
      <path id="CenturySchL-Roma-62" d="M 1152 4672 
L 51 4672 
L 51 4366 
L 275 4366 
C 512 4366 550 4321 550 4048 
L 550 1576 
C 550 724 518 310 435 -64 
L 678 -64 
L 992 432 
C 1254 93 1555 -64 1952 -64 
C 2739 -64 3328 614 3328 1525 
C 3328 2437 2790 3077 2022 3077 
C 1632 3077 1395 2944 1152 2581 
L 1152 4672 
z
M 1907 2752 
C 2387 2752 2656 2289 2656 1459 
C 2656 660 2394 204 1926 204 
C 1421 204 1120 666 1120 1446 
C 1120 2289 1395 2752 1907 2752 
z
" transform="scale(0.015625)"/>
      <path id="CenturySchL-Roma-31" d="M 2061 4512 
C 1843 4239 1254 4032 666 4032 
L 666 3750 
L 1229 3750 
C 1600 3750 1626 3725 1626 3348 
L 1626 786 
L 1626 600 
C 1626 332 1568 300 1056 300 
L 640 300 
L 640 0 
L 3174 0 
L 3174 300 
L 2822 300 
C 2483 300 2342 326 2291 390 
C 2246 434 2246 434 2246 788 
L 2246 3435 
C 2246 3749 2259 4056 2291 4512 
L 2061 4512 
z
" transform="scale(0.015625)"/>
      <path id="CenturySchL-Roma-77" d="M 3501 829 
L 2874 2471 
C 2854 2515 2848 2547 2848 2605 
C 2848 2720 2906 2752 3117 2752 
L 3270 2752 
L 3270 2982 
L 1837 2982 
L 1837 2752 
L 1946 2752 
C 2144 2752 2221 2701 2278 2515 
L 2336 2349 
L 1773 858 
L 1152 2464 
C 1139 2509 1126 2566 1126 2605 
C 1126 2713 1197 2752 1389 2752 
L 1504 2752 
L 1504 2982 
L 96 2982 
L 96 2752 
L 211 2752 
C 390 2752 454 2694 544 2438 
L 1504 -96 
L 1728 -96 
L 2490 1926 
L 3270 -96 
L 3469 -96 
L 4365 2265 
C 4506 2643 4614 2752 4838 2752 
L 4883 2752 
L 4883 2982 
L 3674 2982 
L 3674 2752 
L 3782 2752 
C 4006 2752 4096 2681 4096 2522 
C 4096 2458 4077 2362 4045 2285 
L 3501 829 
z
" transform="scale(0.015625)"/>
      <path id="CenturySchL-Roma-36" d="M 979 2183 
C 1043 2986 1075 3203 1216 3537 
C 1402 4001 1741 4269 2144 4269 
C 2368 4269 2502 4197 2502 4079 
C 2502 4052 2496 4033 2470 3987 
C 2406 3863 2374 3772 2374 3680 
C 2374 3458 2541 3294 2765 3294 
C 3008 3294 3187 3490 3187 3763 
C 3187 4212 2739 4544 2138 4544 
C 1613 4544 1120 4294 813 3865 
C 467 3371 269 2705 269 2006 
C 269 757 883 -64 1830 -64 
C 2246 -64 2592 76 2861 355 
C 3136 634 3302 1052 3302 1452 
C 3302 2200 2758 2758 2035 2758 
C 1600 2758 1280 2585 979 2183 
z
M 1862 2368 
C 2323 2368 2605 2008 2605 1406 
C 2605 679 2310 211 1843 211 
C 1555 211 1331 369 1178 673 
C 1075 869 1024 1084 1024 1318 
C 1024 1970 1344 2368 1862 2368 
z
" transform="scale(0.015625)"/>
      <path id="CenturySchL-Roma-32" d="M 3232 1380 
L 2950 1380 
L 2886 1054 
C 2803 645 2752 600 2355 600 
L 922 600 
C 1363 1060 1510 1194 1920 1514 
C 2502 1962 2752 2186 2899 2377 
C 3104 2658 3206 2946 3206 3252 
C 3206 3975 2598 4499 1766 4499 
C 954 4499 326 3975 326 3297 
C 326 2895 531 2620 838 2620 
C 1075 2620 1235 2780 1235 3010 
C 1235 3170 1146 3317 1005 3375 
C 768 3477 755 3483 755 3566 
C 755 3662 819 3809 909 3918 
C 1069 4109 1338 4224 1638 4224 
C 2163 4224 2483 3898 2483 3362 
C 2483 2888 2259 2460 1728 1898 
L 1350 1502 
C 1126 1266 960 1086 851 965 
C 621 696 506 549 224 179 
L 224 0 
L 3110 0 
L 3232 1380 
z
" transform="scale(0.015625)"/>
      <path id="CenturySchL-Roma-38" d="M 2394 2531 
C 2874 2794 3098 3108 3098 3525 
C 3098 4115 2560 4544 1824 4544 
C 1043 4544 474 4024 474 3320 
C 474 3044 576 2757 755 2558 
C 864 2430 966 2359 1197 2237 
C 915 2129 794 2064 653 1949 
C 403 1743 262 1436 262 1109 
C 262 763 435 417 704 212 
C 954 32 1299 -64 1709 -64 
C 2182 -64 2579 64 2842 301 
C 3117 539 3283 929 3283 1321 
C 3283 1686 3142 2013 2880 2244 
C 2752 2352 2637 2423 2394 2531 
z
M 1709 2782 
C 1190 2974 966 3218 966 3590 
C 966 3993 1299 4269 1805 4269 
C 2298 4269 2624 3955 2624 3487 
C 2624 3154 2496 2936 2131 2628 
L 1709 2782 
z
M 2080 1897 
C 2566 1724 2771 1474 2771 1051 
C 2771 538 2368 211 1741 211 
C 1146 211 794 544 794 1108 
C 794 1589 992 1878 1491 2109 
L 2080 1897 
z
" transform="scale(0.015625)"/>
      <path id="CenturySchL-Roma-33" d="M 2214 2391 
C 2304 2423 2317 2423 2362 2442 
C 2810 2628 3066 2987 3066 3441 
C 3066 4108 2554 4544 1760 4544 
C 1011 4544 442 4094 442 3502 
C 442 3235 621 3046 864 3046 
C 1088 3046 1242 3203 1242 3438 
C 1242 3576 1190 3667 1043 3772 
C 979 3817 960 3850 960 3890 
C 960 4073 1338 4269 1696 4269 
C 2157 4269 2400 3976 2400 3422 
C 2400 2815 2157 2496 1696 2496 
C 1638 2496 1536 2496 1440 2496 
C 1389 2496 1338 2496 1299 2496 
C 1165 2496 1094 2440 1094 2330 
C 1094 2226 1165 2177 1293 2177 
C 1312 2177 1363 2177 1446 2177 
C 1690 2177 1696 2177 1747 2177 
C 2221 2177 2477 1845 2477 1225 
C 2477 580 2150 211 1581 211 
C 1178 211 742 425 742 620 
C 742 678 755 689 883 760 
C 1062 866 1133 974 1133 1130 
C 1133 1357 960 1528 723 1528 
C 454 1528 269 1301 269 972 
C 269 359 838 -64 1658 -64 
C 2579 -64 3187 449 3187 1237 
C 3187 1839 2874 2204 2214 2391 
z
" transform="scale(0.015625)"/>
      <path id="CenturySchL-Roma-37" d="M 378 2955 
L 659 2911 
L 774 3418 
C 870 3841 915 3904 1101 3904 
C 1133 3904 1190 3904 1242 3879 
C 1613 3879 2074 3879 2336 3879 
C 2426 3879 2560 3879 2733 3879 
L 2298 2998 
C 1818 2039 1766 1930 1606 1538 
C 1414 1055 1306 650 1306 379 
C 1306 90 1459 -96 1709 -96 
C 2016 -96 2138 115 2131 667 
C 2099 1583 2221 2038 2899 3537 
C 2995 3743 3091 3942 3187 4140 
C 3194 4153 3213 4211 3251 4294 
L 3251 4479 
C 2854 4473 2643 4473 2253 4473 
C 1709 4473 1274 4473 576 4473 
L 378 2955 
z
" transform="scale(0.015625)"/>
      <path id="CenturySchL-Roma-39" d="M 2586 2246 
C 2502 1474 2470 1283 2355 957 
C 2189 486 1837 211 1408 211 
C 1197 211 1050 275 1050 370 
C 1050 395 1062 427 1088 478 
C 1165 632 1178 671 1178 760 
C 1178 970 1011 1136 800 1136 
C 557 1136 365 932 365 676 
C 365 256 813 -64 1402 -64 
C 1984 -64 2483 199 2797 673 
C 3110 1147 3283 1769 3283 2429 
C 3283 3717 2669 4544 1715 4544 
C 896 4544 250 3863 250 2995 
C 250 2230 787 1665 1517 1665 
C 1971 1665 2240 1812 2586 2246 
z
M 1741 4269 
C 2214 4269 2528 3792 2528 3072 
C 2528 2808 2477 2570 2381 2422 
C 2234 2190 1984 2048 1709 2048 
C 1222 2048 947 2428 947 3110 
C 947 3419 1018 3722 1139 3915 
C 1286 4166 1459 4269 1741 4269 
z
" transform="scale(0.015625)"/>
     </defs>
     <use xlink:href="#CenturySchL-Roma-41" transform="scale(0.996264)"/>
     <use xlink:href="#CenturySchL-Roma-3d" transform="translate(99.625154 0) scale(0.996264)"/>
     <use xlink:href="#CenturySchL-Roma-35" transform="translate(187.693336 0) scale(0.996264)"/>
     <use xlink:href="#CenturySchL-Roma-2e" transform="translate(243.085013 0) scale(0.996264)"/>
     <use xlink:href="#CenturySchL-Roma-30" transform="translate(270.780183 0) scale(0.996264)"/>
     <use xlink:href="#CenturySchL-Roma-2c" transform="translate(326.17186 0) scale(0.996264)"/>
     <use xlink:href="#CenturySchL-Roma-62" transform="translate(381.562199 0) scale(0.996264)"/>
     <use xlink:href="#CenturySchL-Roma-3d" transform="translate(464.649046 0) scale(0.996264)"/>
     <use xlink:href="#CenturySchL-Roma-30" transform="translate(552.717227 0) scale(0.996264)"/>
     <use xlink:href="#CenturySchL-Roma-2e" transform="translate(608.108904 0) scale(0.996264)"/>
     <use xlink:href="#CenturySchL-Roma-31" transform="translate(635.804074 0) scale(0.996264)"/>
     <use xlink:href="#CenturySchL-Roma-2c" transform="translate(691.195751 0) scale(0.996264)"/>
     <use xlink:href="#CenturySchL-Roma-77" transform="translate(746.58609 0) scale(0.996264)"/>
     <use xlink:href="#CenturySchL-Roma-3d" transform="translate(851.78963 0) scale(0.996264)"/>
     <use xlink:href="#CenturySchL-Roma-36" transform="translate(939.857812 0) scale(0.996264)"/>
     <use xlink:href="#CenturySchL-Roma-2e" transform="translate(995.249489 0) scale(0.996264)"/>
     <use xlink:href="#CenturySchL-Roma-32" transform="translate(1022.944658 0) scale(0.996264)"/>
     <use xlink:href="#CenturySchL-Roma-38" transform="translate(1078.336335 0) scale(0.996264)"/>
     <use xlink:href="#CenturySchL-Roma-33" transform="translate(1133.728012 0) scale(0.996264)"/>
     <use xlink:href="#CenturySchL-Roma-31" transform="translate(1189.119689 0) scale(0.996264)"/>
     <use xlink:href="#CenturySchL-Roma-38" transform="translate(1244.511366 0) scale(0.996264)"/>
     <use xlink:href="#CenturySchL-Roma-35" transform="translate(1299.903043 0) scale(0.996264)"/>
     <use xlink:href="#CenturySchL-Roma-33" transform="translate(1355.29472 0) scale(0.996264)"/>
     <use xlink:href="#CenturySchL-Roma-30" transform="translate(1410.686397 0) scale(0.996264)"/>
     <use xlink:href="#CenturySchL-Roma-37" transform="translate(1466.078074 0) scale(0.996264)"/>
     <use xlink:href="#CenturySchL-Roma-31" transform="translate(1521.469751 0) scale(0.996264)"/>
     <use xlink:href="#CenturySchL-Roma-37" transform="translate(1576.861428 0) scale(0.996264)"/>
     <use xlink:href="#CenturySchL-Roma-39" transform="translate(1632.253105 0) scale(0.996264)"/>
     <use xlink:href="#CenturySchL-Roma-35" transform="translate(1687.644782 0) scale(0.996264)"/>
     <use xlink:href="#CenturySchL-Roma-38" transform="translate(1743.036459 0) scale(0.996264)"/>
     <use xlink:href="#CenturySchL-Roma-36" transform="translate(1798.428136 0) scale(0.996264)"/>
    </g>
   </g>
  </g>
 </g>
 <defs>
  <clipPath id="p09d30031bd">
   <rect x="72" y="43.2" width="446.4" height="345.6"/>
  </clipPath>
 </defs>
</svg>
