<?xml version="1.0" encoding="utf-8" standalone="no"?>
<!DOCTYPE svg PUBLIC "-//W3C//DTD SVG 1.1//EN"
  "http://www.w3.org/Graphics/SVG/1.1/DTD/svg11.dtd">
<svg xmlns:xlink="http://www.w3.org/1999/xlink" width="576pt" height="432pt" viewBox="0 0 576 432" xmlns="http://www.w3.org/2000/svg" version="1.1">
 <metadata>
  <rdf:RDF xmlns:dc="http://purl.org/dc/elements/1.1/" xmlns:cc="http://creativecommons.org/ns#" xmlns:rdf="http://www.w3.org/1999/02/22-rdf-syntax-ns#">
   <cc:Work>
    <dc:type rdf:resource="http://purl.org/dc/dcmitype/StillImage"/>
    <dc:date>2024-11-03T23:02:46.633306</dc:date>
    <dc:format>image/svg+xml</dc:format>
    <dc:creator>
     <cc:Agent>
      <dc:title>Matplotlib v3.9.2, https://matplotlib.org/</dc:title>
     </cc:Agent>
    </dc:creator>
   </cc:Work>
  </rdf:RDF>
 </metadata>
 <defs>
  <style type="text/css">*{stroke-linejoin: round; stroke-linecap: butt}</style>
 </defs>
 <g id="figure_1">
  <g id="patch_1">
   <path d="M 0 432 
L 576 432 
L 576 0 
L 0 0 
z
" style="fill: #ffffff"/>
  </g>
  <g id="axes_1">
   <g id="patch_2">
    <path d="M 72 388.8 
L 518.4 388.8 
L 518.4 43.2 
L 72 43.2 
z
" style="fill: #ffffff"/>
   </g>
   <g id="line2d_1">
    <path d="M 72 43.2 
L 72.8928 49.962457 
L 73.7856 66.977739 
L 74.6784 93.02141 
L 75.5712 126.325133 
L 77.3568 205.658306 
L 79.1424 285.0134 
L 80.0352 318.495061 
L 80.928 345.049945 
L 81.8208 363.131066 
L 82.7136 371.744727 
L 83.6064 370.50374 
L 84.4992 359.641957 
L 85.392 339.989824 
L 86.2848 312.913092 
L 88.0704 244.037005 
L 89.856 170.49711 
L 90.7488 137.727953 
L 91.6416 110.362833 
L 92.5344 90.02346 
L 93.4272 77.867424 
L 94.32 74.523326 
L 95.2128 80.059958 
L 96.1056 93.990892 
L 96.9984 115.313647 
L 97.8912 142.580428 
L 99.6768 207.532937 
L 101.4624 272.503393 
L 102.3552 299.915859 
L 103.248 321.657159 
L 104.1408 336.460729 
L 105.0336 343.512998 
L 105.9264 342.496964 
L 106.8192 333.604088 
L 107.712 317.514282 
L 108.6048 295.345729 
L 110.3904 238.954758 
L 112.176 178.745384 
L 113.0688 151.916268 
L 113.9616 129.511602 
L 114.8544 112.859133 
L 115.7472 102.906612 
L 116.64 100.168696 
L 117.5328 104.701707 
L 118.4256 116.107391 
L 119.3184 133.564986 
L 120.2112 155.889139 
L 121.9968 209.067755 
L 123.7824 262.261066 
L 124.6752 284.704494 
L 125.568 302.504765 
L 126.4608 314.624903 
L 127.3536 320.398813 
L 128.2464 319.566954 
L 129.1392 312.286084 
L 130.032 299.112865 
L 130.9248 280.962788 
L 132.7104 234.793766 
L 134.496 185.4985 
L 135.3888 163.532678 
L 136.2816 145.189289 
L 137.1744 131.5554 
L 138.0672 123.406965 
L 138.96 121.165349 
L 139.8528 124.876665 
L 140.7456 134.214849 
L 141.6384 148.507919 
L 142.5312 166.785389 
L 144.3168 210.324358 
L 146.1024 253.875357 
L 146.9952 272.250482 
L 147.888 286.824112 
L 148.7808 296.747241 
L 149.6736 301.474519 
L 150.5664 300.79345 
L 151.4592 294.832378 
L 152.352 284.047058 
L 153.2448 269.187032 
L 155.0304 231.387034 
L 156.816 191.027484 
L 157.7088 173.04339 
L 158.6016 158.025093 
L 159.4944 146.862609 
L 160.3872 140.191235 
L 161.28 138.355955 
L 162.1728 141.394523 
L 163.0656 149.039982 
L 163.9584 160.742158 
L 164.8512 175.706485 
L 166.6368 211.353177 
L 168.4224 247.00972 
L 169.3152 262.054 
L 170.208 273.985878 
L 171.1008 282.11025 
L 171.9936 285.980617 
L 172.8864 285.423006 
L 173.7792 280.542492 
L 174.672 271.712219 
L 175.5648 259.545859 
L 177.3504 228.597838 
L 179.136 195.554233 
L 180.0288 180.830102 
L 180.9216 168.534161 
L 181.8144 159.395092 
L 182.7072 153.933033 
L 183.6 152.430433 
L 184.4928 154.918202 
L 185.3856 161.177774 
L 186.2784 170.758705 
L 187.1712 183.01046 
L 188.9568 212.195503 
L 190.7424 241.388611 
L 191.6352 253.705826 
L 192.528 263.474822 
L 193.4208 270.126494 
L 194.3136 273.295283 
L 195.2064 272.83875 
L 196.0992 268.842923 
L 196.992 261.613307 
L 197.8848 251.652334 
L 199.6704 226.314238 
L 201.456 199.260422 
L 202.3488 187.205323 
L 203.2416 177.138258 
L 204.1344 169.655821 
L 205.0272 165.183865 
L 205.92 163.95364 
L 206.8128 165.990453 
L 207.7056 171.115357 
L 208.5984 178.959561 
L 209.4912 188.990449 
L 211.2768 212.885142 
L 213.0624 236.786437 
L 213.9552 246.870919 
L 214.848 254.869097 
L 215.7408 260.315026 
L 216.6336 262.90941 
L 217.5264 262.535632 
L 218.4192 259.264126 
L 219.312 253.345017 
L 220.2048 245.189662 
L 221.9904 224.444584 
L 223.776 202.294793 
L 224.6688 192.424912 
L 225.5616 184.182697 
L 226.4544 178.056595 
L 227.3472 174.395268 
L 228.24 173.388045 
L 229.1328 175.055646 
L 230.0256 179.251563 
L 230.9184 185.673853 
L 231.8112 193.88645 
L 233.5968 213.44977 
L 235.3824 233.018495 
L 236.2752 241.274971 
L 237.168 247.823325 
L 238.0608 252.282074 
L 238.9536 254.406177 
L 239.8464 254.100153 
L 240.7392 251.421671 
L 241.632 246.575514 
L 242.5248 239.898474 
L 244.3104 222.91384 
L 246.096 204.779125 
L 246.9888 196.698351 
L 247.8816 189.950195 
L 248.7744 184.934568 
L 249.6672 181.936926 
L 250.56 181.112282 
L 251.4528 182.477598 
L 252.3456 185.912924 
L 253.2384 191.171051 
L 254.1312 197.894957 
L 255.9168 213.912048 
L 257.7024 229.933565 
L 258.5952 236.693396 
L 259.488 242.054735 
L 260.3808 245.70525 
L 261.2736 247.444318 
L 262.1664 247.193767 
L 263.0592 245.000811 
L 263.952 241.033114 
L 264.8448 235.566416 
L 266.6304 221.660574 
L 268.416 206.813125 
L 269.3088 200.197146 
L 270.2016 194.672224 
L 271.0944 190.565775 
L 271.9872 188.111514 
L 272.88 187.436352 
L 273.7728 188.554179 
L 274.6656 191.366786 
L 275.5584 195.671776 
L 276.4512 201.176844 
L 278.2368 214.290529 
L 280.0224 227.407838 
L 280.9152 232.94232 
L 281.808 237.331812 
L 282.7008 240.320602 
L 283.5936 241.74443 
L 284.4864 241.539296 
L 285.3792 239.743856 
L 286.272 236.49538 
L 287.1648 232.019626 
L 288.9504 220.634486 
L 290.736 208.478423 
L 291.6288 203.061718 
L 292.5216 198.538294 
L 293.4144 195.176218 
L 294.3072 193.166839 
L 295.2 192.614063 
L 296.0928 193.529262 
L 296.9856 195.83203 
L 297.8784 199.356658 
L 298.7712 203.863826 
L 300.5568 214.600404 
L 302.3424 225.339948 
L 303.2352 229.871198 
L 304.128 233.465011 
L 305.0208 235.912025 
L 305.9136 237.077757 
L 306.8064 236.909807 
L 307.6992 235.439825 
L 308.592 232.780198 
L 309.4848 229.115761 
L 311.2704 219.794396 
L 313.056 209.841853 
L 313.9488 205.40703 
L 314.8416 201.703564 
L 315.7344 198.950929 
L 316.6272 197.305789 
L 317.52 196.853214 
L 318.4128 197.602516 
L 319.3056 199.487863 
L 320.1984 202.373584 
L 321.0912 206.063741 
L 322.8768 214.854108 
L 324.6624 223.646903 
L 325.5552 227.356777 
L 326.448 230.299142 
L 327.3408 232.302587 
L 328.2336 233.257008 
L 329.1264 233.119502 
L 330.0192 231.915983 
L 330.912 229.738464 
L 331.8048 226.738277 
L 333.5904 219.106589 
L 335.376 210.958136 
L 336.2688 207.32721 
L 337.1616 204.295068 
L 338.0544 202.041401 
L 338.9472 200.694474 
L 339.84 200.323938 
L 340.7328 200.937414 
L 341.6256 202.481005 
L 342.5184 204.843634 
L 343.4112 207.86488 
L 345.1968 215.061823 
L 346.9824 222.260754 
L 347.8752 225.298142 
L 348.768 227.707147 
L 349.6608 229.347429 
L 350.5536 230.128843 
L 351.4464 230.016263 
L 352.3392 229.030904 
L 353.232 227.248103 
L 354.1248 224.791757 
L 355.9104 218.54346 
L 357.696 211.872071 
L 358.5888 208.89932 
L 359.4816 206.416812 
L 360.3744 204.571666 
L 361.2672 203.468895 
L 362.16 203.165526 
L 363.0528 203.667798 
L 363.9456 204.931583 
L 364.8384 206.86594 
L 365.7312 209.339527 
L 367.5168 215.231885 
L 369.3024 221.125872 
L 370.1952 223.612675 
L 371.088 225.585001 
L 371.9808 226.927951 
L 372.8736 227.567718 
L 373.7664 227.475546 
L 374.6592 226.668802 
L 375.552 225.209168 
L 376.4448 223.198082 
L 378.2304 218.082409 
L 380.016 212.620338 
L 380.9088 210.186455 
L 381.8016 208.15395 
L 382.6944 206.643272 
L 383.5872 205.740399 
L 384.48 205.492021 
L 385.3728 205.903247 
L 386.2656 206.937947 
L 387.1584 208.521664 
L 388.0512 210.546866 
L 389.8368 215.371121 
L 391.6224 220.196709 
L 392.5152 222.232731 
L 393.408 223.847535 
L 394.3008 224.947049 
L 395.1936 225.470847 
L 396.0864 225.395382 
L 396.9792 224.734876 
L 397.872 223.539829 
L 398.7648 221.893291 
L 400.5504 217.704932 
L 402.336 213.232966 
L 403.2288 211.240272 
L 404.1216 209.576197 
L 405.0144 208.339359 
L 405.9072 207.600149 
L 406.8 207.396795 
L 407.6928 207.733478 
L 408.5856 208.580618 
L 409.4784 209.877257 
L 410.3712 211.535351 
L 414.8352 221.102929 
L 415.728 222.425018 
L 416.6208 223.325224 
L 417.5136 223.754073 
L 418.4064 223.692288 
L 419.2992 223.151512 
L 420.192 222.17309 
L 421.0848 220.825019 
L 422.8704 217.39588 
L 424.656 213.734544 
L 425.5488 212.103064 
L 426.4416 210.740635 
L 427.3344 209.727997 
L 428.2272 209.122784 
L 429.12 208.956291 
L 430.0128 209.231944 
L 430.9056 209.925524 
L 431.7984 210.987122 
L 432.6912 212.344655 
L 437.1552 220.177925 
L 438.048 221.26036 
L 438.9408 221.997387 
L 439.8336 222.348498 
L 440.7264 222.297913 
L 441.6192 221.855163 
L 442.512 221.054099 
L 443.4048 219.950391 
L 445.1904 217.14285 
L 446.976 214.145202 
L 447.8688 212.809459 
L 448.7616 211.693996 
L 449.6544 210.864919 
L 450.5472 210.369412 
L 451.44 210.233099 
L 452.3328 210.458784 
L 453.2256 211.02664 
L 454.1184 211.895802 
L 455.904 214.287806 
L 458.5824 218.303203 
L 459.4752 219.420595 
L 460.368 220.306819 
L 461.2608 220.910245 
L 462.1536 221.197711 
L 463.0464 221.156295 
L 463.9392 220.793802 
L 464.832 220.137946 
L 465.7248 219.234307 
L 467.5104 216.935687 
L 469.296 214.48142 
L 470.1888 213.387806 
L 471.0816 212.474542 
L 471.9744 211.795751 
L 472.8672 211.390064 
L 473.76 211.278461 
L 474.6528 211.463236 
L 475.5456 211.928157 
L 476.4384 212.639767 
L 478.224 214.598174 
L 480.9024 217.885703 
L 481.7952 218.800547 
L 482.688 219.526125 
L 483.5808 220.020168 
L 484.4736 220.255526 
L 485.3664 220.221617 
L 486.2592 219.924833 
L 487.152 219.387864 
L 488.0448 218.648026 
L 489.8304 216.766075 
L 492.5088 213.861316 
L 493.4016 213.113599 
L 494.2944 212.557852 
L 495.1872 212.225704 
L 496.08 212.134331 
L 496.9728 212.285612 
L 497.8656 212.666257 
L 498.7584 213.248874 
L 500.544 214.852282 
L 503.2224 217.543883 
L 504.1152 218.292894 
L 505.008 218.886947 
L 505.9008 219.291436 
L 506.7936 219.48413 
L 507.6864 219.456368 
L 508.5792 219.213381 
L 509.472 218.773748 
L 511.2576 217.436631 
L 514.8288 214.248994 
L 515.7216 213.636815 
L 516.6144 213.181808 
L 517.5072 212.909868 
L 518.4 212.835058 
L 518.4 212.835058 
" clip-path="url(#p9720f3a688)" style="fill: none; stroke: #ff0000; stroke-linecap: square"/>
   </g>
   <g id="patch_3">
    <path d="M 72 388.8 
L 72 43.2 
" style="fill: none; stroke: #000000; stroke-linejoin: miter; stroke-linecap: square"/>
   </g>
   <g id="patch_4">
    <path d="M 518.4 388.8 
L 518.4 43.2 
" style="fill: none; stroke: #000000; stroke-linejoin: miter; stroke-linecap: square"/>
   </g>
   <g id="patch_5">
    <path d="M 72 388.8 
L 518.4 388.8 
" style="fill: none; stroke: #000000; stroke-linejoin: miter; stroke-linecap: square"/>
   </g>
   <g id="patch_6">
    <path d="M 72 43.2 
L 518.4 43.2 
" style="fill: none; stroke: #000000; stroke-linejoin: miter; stroke-linecap: square"/>
   </g>
   <g id="matplotlib.axis_1">
    <g id="xtick_1">
     <g id="line2d_2">
      <path d="M 72 388.8 
L 72 43.2 
" clip-path="url(#p9720f3a688)" style="fill: none; stroke-dasharray: 1,3; stroke-dashoffset: 0; stroke: #000000; stroke-width: 0.5"/>
     </g>
     <g id="line2d_3">
      <defs>
       <path id="mb1da385d21" d="M 0 0 
L 0 -4 
" style="stroke: #000000; stroke-width: 0.5"/>
      </defs>
      <g>
       <use xlink:href="#mb1da385d21" x="72" y="388.8" style="stroke: #000000; stroke-width: 0.5"/>
      </g>
     </g>
     <g id="line2d_4">
      <defs>
       <path id="me6fc9fafbc" d="M 0 0 
L 0 4 
" style="stroke: #000000; stroke-width: 0.5"/>
      </defs>
      <g>
       <use xlink:href="#me6fc9fafbc" x="72" y="43.2" style="stroke: #000000; stroke-width: 0.5"/>
      </g>
     </g>
     <g id="text_1">
      <!-- $\mathdefault{0}$ -->
      <g transform="translate(69.073505 401.67065) scale(0.12 -0.12)">
       <defs>
        <path id="CMR17-30" d="M 2688 2025 
C 2688 2416 2682 3080 2413 3591 
C 2176 4039 1798 4198 1466 4198 
C 1158 4198 768 4058 525 3597 
C 269 3118 243 2524 243 2025 
C 243 1661 250 1106 448 619 
C 723 -39 1216 -128 1466 -128 
C 1760 -128 2208 -7 2470 600 
C 2662 1042 2688 1559 2688 2025 
z
M 1466 -26 
C 1056 -26 813 325 723 812 
C 653 1188 653 1738 653 2096 
C 653 2588 653 2997 736 3387 
C 858 3929 1216 4096 1466 4096 
C 1728 4096 2067 3923 2189 3400 
C 2272 3036 2278 2607 2278 2096 
C 2278 1680 2278 1169 2202 792 
C 2067 95 1690 -26 1466 -26 
z
" transform="scale(0.015625)"/>
       </defs>
       <use xlink:href="#CMR17-30" transform="scale(0.996264)"/>
      </g>
     </g>
    </g>
    <g id="xtick_2">
     <g id="line2d_5">
      <path d="M 183.6 388.8 
L 183.6 43.2 
" clip-path="url(#p9720f3a688)" style="fill: none; stroke-dasharray: 1,3; stroke-dashoffset: 0; stroke: #000000; stroke-width: 0.5"/>
     </g>
     <g id="line2d_6">
      <g>
       <use xlink:href="#mb1da385d21" x="183.6" y="388.8" style="stroke: #000000; stroke-width: 0.5"/>
      </g>
     </g>
     <g id="line2d_7">
      <g>
       <use xlink:href="#me6fc9fafbc" x="183.6" y="43.2" style="stroke: #000000; stroke-width: 0.5"/>
      </g>
     </g>
     <g id="text_2">
      <!-- $\mathdefault{5}$ -->
      <g transform="translate(180.673505 401.67065) scale(0.12 -0.12)">
       <defs>
        <path id="CMR17-35" d="M 730 3692 
C 794 3666 1056 3584 1325 3584 
C 1920 3584 2246 3911 2432 4100 
C 2432 4157 2432 4192 2394 4192 
C 2387 4192 2374 4192 2323 4163 
C 2099 4058 1837 3973 1517 3973 
C 1325 3973 1037 3999 723 4139 
C 653 4171 640 4171 634 4171 
C 602 4171 595 4164 595 4037 
L 595 2203 
C 595 2089 595 2057 659 2057 
C 691 2057 704 2070 736 2114 
C 941 2401 1222 2522 1542 2522 
C 1766 2522 2246 2382 2246 1289 
C 2246 1085 2246 715 2054 421 
C 1894 159 1645 25 1370 25 
C 947 25 518 320 403 814 
C 429 807 480 795 506 795 
C 589 795 749 840 749 1038 
C 749 1210 627 1280 506 1280 
C 358 1280 262 1190 262 1011 
C 262 454 704 -128 1382 -128 
C 2042 -128 2669 440 2669 1264 
C 2669 2030 2170 2624 1549 2624 
C 1222 2624 947 2503 730 2274 
L 730 3692 
z
" transform="scale(0.015625)"/>
       </defs>
       <use xlink:href="#CMR17-35" transform="scale(0.996264)"/>
      </g>
     </g>
    </g>
    <g id="xtick_3">
     <g id="line2d_8">
      <path d="M 295.2 388.8 
L 295.2 43.2 
" clip-path="url(#p9720f3a688)" style="fill: none; stroke-dasharray: 1,3; stroke-dashoffset: 0; stroke: #000000; stroke-width: 0.5"/>
     </g>
     <g id="line2d_9">
      <g>
       <use xlink:href="#mb1da385d21" x="295.2" y="388.8" style="stroke: #000000; stroke-width: 0.5"/>
      </g>
     </g>
     <g id="line2d_10">
      <g>
       <use xlink:href="#me6fc9fafbc" x="295.2" y="43.2" style="stroke: #000000; stroke-width: 0.5"/>
      </g>
     </g>
     <g id="text_3">
      <!-- $\mathdefault{10}$ -->
      <g transform="translate(289.34701 401.67065) scale(0.12 -0.12)">
       <defs>
        <path id="CMR17-31" d="M 1702 4058 
C 1702 4192 1696 4192 1606 4192 
C 1357 3916 979 3827 621 3827 
C 602 3827 570 3827 563 3808 
C 557 3795 557 3782 557 3648 
C 755 3648 1088 3686 1344 3839 
L 1344 461 
C 1344 236 1331 160 781 160 
L 589 160 
L 589 0 
C 896 0 1216 0 1523 0 
C 1830 0 2150 0 2458 0 
L 2458 160 
L 2266 160 
C 1715 160 1702 230 1702 458 
L 1702 4058 
z
" transform="scale(0.015625)"/>
       </defs>
       <use xlink:href="#CMR17-31" transform="scale(0.996264)"/>
       <use xlink:href="#CMR17-30" transform="translate(45.690477 0) scale(0.996264)"/>
      </g>
     </g>
    </g>
    <g id="xtick_4">
     <g id="line2d_11">
      <path d="M 406.8 388.8 
L 406.8 43.2 
" clip-path="url(#p9720f3a688)" style="fill: none; stroke-dasharray: 1,3; stroke-dashoffset: 0; stroke: #000000; stroke-width: 0.5"/>
     </g>
     <g id="line2d_12">
      <g>
       <use xlink:href="#mb1da385d21" x="406.8" y="388.8" style="stroke: #000000; stroke-width: 0.5"/>
      </g>
     </g>
     <g id="line2d_13">
      <g>
       <use xlink:href="#me6fc9fafbc" x="406.8" y="43.2" style="stroke: #000000; stroke-width: 0.5"/>
      </g>
     </g>
     <g id="text_4">
      <!-- $\mathdefault{15}$ -->
      <g transform="translate(400.94701 401.67065) scale(0.12 -0.12)">
       <use xlink:href="#CMR17-31" transform="scale(0.996264)"/>
       <use xlink:href="#CMR17-35" transform="translate(45.690477 0) scale(0.996264)"/>
      </g>
     </g>
    </g>
    <g id="xtick_5">
     <g id="line2d_14">
      <path d="M 518.4 388.8 
L 518.4 43.2 
" clip-path="url(#p9720f3a688)" style="fill: none; stroke-dasharray: 1,3; stroke-dashoffset: 0; stroke: #000000; stroke-width: 0.5"/>
     </g>
     <g id="line2d_15">
      <g>
       <use xlink:href="#mb1da385d21" x="518.4" y="388.8" style="stroke: #000000; stroke-width: 0.5"/>
      </g>
     </g>
     <g id="line2d_16">
      <g>
       <use xlink:href="#me6fc9fafbc" x="518.4" y="43.2" style="stroke: #000000; stroke-width: 0.5"/>
      </g>
     </g>
     <g id="text_5">
      <!-- $\mathdefault{20}$ -->
      <g transform="translate(512.54701 401.67065) scale(0.12 -0.12)">
       <defs>
        <path id="CMR17-32" d="M 2669 989 
L 2554 989 
C 2490 536 2438 459 2413 420 
C 2381 369 1920 369 1830 369 
L 602 369 
C 832 619 1280 1072 1824 1597 
C 2214 1967 2669 2402 2669 3035 
C 2669 3790 2067 4224 1395 4224 
C 691 4224 262 3604 262 3030 
C 262 2780 448 2748 525 2748 
C 589 2748 781 2787 781 3010 
C 781 3207 614 3264 525 3264 
C 486 3264 448 3258 422 3245 
C 544 3790 915 4058 1306 4058 
C 1862 4058 2227 3617 2227 3035 
C 2227 2479 1901 2000 1536 1584 
L 262 146 
L 262 0 
L 2515 0 
L 2669 989 
z
" transform="scale(0.015625)"/>
       </defs>
       <use xlink:href="#CMR17-32" transform="scale(0.996264)"/>
       <use xlink:href="#CMR17-30" transform="translate(45.690477 0) scale(0.996264)"/>
      </g>
     </g>
    </g>
    <g id="text_6">
     <!-- $t$ -->
     <g transform="translate(292.734157 419.29117) scale(0.14 -0.14)">
      <defs>
       <path id="CMMI12-74" d="M 1286 2566 
L 1875 2566 
C 1997 2566 2061 2566 2061 2681 
C 2061 2752 2022 2752 1894 2752 
L 1331 2752 
L 1568 3692 
C 1594 3781 1594 3794 1594 3840 
C 1594 3943 1510 4000 1427 4000 
C 1376 4000 1229 3981 1178 3775 
L 928 2752 
L 326 2752 
C 198 2752 141 2752 141 2630 
C 141 2566 186 2566 307 2566 
L 877 2566 
L 454 881 
C 403 658 384 594 384 511 
C 384 211 595 -64 954 -64 
C 1600 -64 1946 868 1946 912 
C 1946 951 1920 970 1882 970 
C 1869 970 1843 970 1830 944 
C 1824 938 1818 931 1773 829 
C 1638 511 1344 64 973 64 
C 781 64 768 224 768 364 
C 768 370 768 492 787 568 
L 1286 2566 
z
" transform="scale(0.015625)"/>
      </defs>
      <use xlink:href="#CMMI12-74" transform="scale(0.996264)"/>
     </g>
    </g>
   </g>
   <g id="matplotlib.axis_2">
    <g id="ytick_1">
     <g id="line2d_17">
      <path d="M 72 388.8 
L 518.4 388.8 
" clip-path="url(#p9720f3a688)" style="fill: none; stroke-dasharray: 1,3; stroke-dashoffset: 0; stroke: #000000; stroke-width: 0.5"/>
     </g>
     <g id="line2d_18">
      <defs>
       <path id="mcf8c0c4d24" d="M 0 0 
L 4 0 
" style="stroke: #000000; stroke-width: 0.5"/>
      </defs>
      <g>
       <use xlink:href="#mcf8c0c4d24" x="72" y="388.8" style="stroke: #000000; stroke-width: 0.5"/>
      </g>
     </g>
     <g id="line2d_19">
      <defs>
       <path id="m4203bd1ad9" d="M 0 0 
L -4 0 
" style="stroke: #000000; stroke-width: 0.5"/>
      </defs>
      <g>
       <use xlink:href="#m4203bd1ad9" x="518.4" y="388.8" style="stroke: #000000; stroke-width: 0.5"/>
      </g>
     </g>
     <g id="text_7">
      <!-- $\mathdefault{−1.0}$ -->
      <g transform="translate(43.743869 392.099608) scale(0.12 -0.12)">
       <defs>
        <path id="CMSY10-0" d="M 4218 1472 
C 4326 1472 4442 1472 4442 1600 
C 4442 1728 4326 1728 4218 1728 
L 755 1728 
C 646 1728 531 1728 531 1600 
C 531 1472 646 1472 755 1472 
L 4218 1472 
z
" transform="scale(0.015625)"/>
        <path id="CMMI12-3a" d="M 1178 307 
C 1178 492 1024 619 870 619 
C 685 619 557 466 557 313 
C 557 128 710 0 864 0 
C 1050 0 1178 153 1178 307 
z
" transform="scale(0.015625)"/>
       </defs>
       <use xlink:href="#CMSY10-0" transform="scale(0.996264)"/>
       <use xlink:href="#CMR17-31" transform="translate(77.487468 0) scale(0.996264)"/>
       <use xlink:href="#CMMI12-3a" transform="translate(123.177945 0) scale(0.996264)"/>
       <use xlink:href="#CMR17-30" transform="translate(150.275122 0) scale(0.996264)"/>
      </g>
     </g>
    </g>
    <g id="ytick_2">
     <g id="line2d_20">
      <path d="M 72 302.4 
L 518.4 302.4 
" clip-path="url(#p9720f3a688)" style="fill: none; stroke-dasharray: 1,3; stroke-dashoffset: 0; stroke: #000000; stroke-width: 0.5"/>
     </g>
     <g id="line2d_21">
      <g>
       <use xlink:href="#mcf8c0c4d24" x="72" y="302.4" style="stroke: #000000; stroke-width: 0.5"/>
      </g>
     </g>
     <g id="line2d_22">
      <g>
       <use xlink:href="#m4203bd1ad9" x="518.4" y="302.4" style="stroke: #000000; stroke-width: 0.5"/>
      </g>
     </g>
     <g id="text_8">
      <!-- $\mathdefault{−0.5}$ -->
      <g transform="translate(43.743869 305.699608) scale(0.12 -0.12)">
       <use xlink:href="#CMSY10-0" transform="scale(0.996264)"/>
       <use xlink:href="#CMR17-30" transform="translate(77.487468 0) scale(0.996264)"/>
       <use xlink:href="#CMMI12-3a" transform="translate(123.177945 0) scale(0.996264)"/>
       <use xlink:href="#CMR17-35" transform="translate(150.275122 0) scale(0.996264)"/>
      </g>
     </g>
    </g>
    <g id="ytick_3">
     <g id="line2d_23">
      <path d="M 72 216 
L 518.4 216 
" clip-path="url(#p9720f3a688)" style="fill: none; stroke-dasharray: 1,3; stroke-dashoffset: 0; stroke: #000000; stroke-width: 0.5"/>
     </g>
     <g id="line2d_24">
      <g>
       <use xlink:href="#mcf8c0c4d24" x="72" y="216" style="stroke: #000000; stroke-width: 0.5"/>
      </g>
     </g>
     <g id="line2d_25">
      <g>
       <use xlink:href="#m4203bd1ad9" x="518.4" y="216" style="stroke: #000000; stroke-width: 0.5"/>
      </g>
     </g>
     <g id="text_9">
      <!-- $\mathdefault{0.0}$ -->
      <g transform="translate(53.042358 219.299608) scale(0.12 -0.12)">
       <use xlink:href="#CMR17-30" transform="scale(0.996264)"/>
       <use xlink:href="#CMMI12-3a" transform="translate(45.690477 0) scale(0.996264)"/>
       <use xlink:href="#CMR17-30" transform="translate(72.787654 0) scale(0.996264)"/>
      </g>
     </g>
    </g>
    <g id="ytick_4">
     <g id="line2d_26">
      <path d="M 72 129.6 
L 518.4 129.6 
" clip-path="url(#p9720f3a688)" style="fill: none; stroke-dasharray: 1,3; stroke-dashoffset: 0; stroke: #000000; stroke-width: 0.5"/>
     </g>
     <g id="line2d_27">
      <g>
       <use xlink:href="#mcf8c0c4d24" x="72" y="129.6" style="stroke: #000000; stroke-width: 0.5"/>
      </g>
     </g>
     <g id="line2d_28">
      <g>
       <use xlink:href="#m4203bd1ad9" x="518.4" y="129.6" style="stroke: #000000; stroke-width: 0.5"/>
      </g>
     </g>
     <g id="text_10">
      <!-- $\mathdefault{0.5}$ -->
      <g transform="translate(53.042358 132.899608) scale(0.12 -0.12)">
       <use xlink:href="#CMR17-30" transform="scale(0.996264)"/>
       <use xlink:href="#CMMI12-3a" transform="translate(45.690477 0) scale(0.996264)"/>
       <use xlink:href="#CMR17-35" transform="translate(72.787654 0) scale(0.996264)"/>
      </g>
     </g>
    </g>
    <g id="ytick_5">
     <g id="line2d_29">
      <path d="M 72 43.2 
L 518.4 43.2 
" clip-path="url(#p9720f3a688)" style="fill: none; stroke-dasharray: 1,3; stroke-dashoffset: 0; stroke: #000000; stroke-width: 0.5"/>
     </g>
     <g id="line2d_30">
      <g>
       <use xlink:href="#mcf8c0c4d24" x="72" y="43.2" style="stroke: #000000; stroke-width: 0.5"/>
      </g>
     </g>
     <g id="line2d_31">
      <g>
       <use xlink:href="#m4203bd1ad9" x="518.4" y="43.2" style="stroke: #000000; stroke-width: 0.5"/>
      </g>
     </g>
     <g id="text_11">
      <!-- $\mathdefault{1.0}$ -->
      <g transform="translate(53.042358 46.499608) scale(0.12 -0.12)">
       <use xlink:href="#CMR17-31" transform="scale(0.996264)"/>
       <use xlink:href="#CMMI12-3a" transform="translate(45.690477 0) scale(0.996264)"/>
       <use xlink:href="#CMR17-30" transform="translate(72.787654 0) scale(0.996264)"/>
      </g>
     </g>
    </g>
    <g id="text_12">
     <!-- $u(t)$ -->
     <g transform="translate(35.256945 227.663309) rotate(-90) scale(0.14 -0.14)">
      <defs>
       <path id="CMMI12-75" d="M 2182 370 
C 2266 13 2573 -64 2726 -64 
C 2931 -64 3085 70 3187 287 
C 3296 517 3379 894 3379 913 
C 3379 945 3354 971 3315 971 
C 3258 971 3251 939 3226 843 
C 3110 402 2995 64 2739 64 
C 2547 64 2547 275 2547 358 
C 2547 505 2566 568 2630 837 
C 2675 1009 2720 1181 2758 1360 
L 3021 2401 
C 3066 2561 3066 2574 3066 2593 
C 3066 2689 2989 2753 2893 2753 
C 2707 2753 2662 2593 2624 2433 
C 2560 2184 2214 811 2170 588 
C 2163 588 1914 64 1446 64 
C 1114 64 1050 351 1050 588 
C 1050 952 1229 1462 1395 1890 
C 1472 2095 1504 2178 1504 2305 
C 1504 2580 1306 2816 998 2816 
C 410 2816 173 1890 173 1839 
C 173 1814 198 1782 243 1782 
C 301 1782 307 1807 333 1896 
C 486 2441 736 2682 979 2682 
C 1043 2682 1146 2682 1146 2478 
C 1146 2312 1075 2127 979 1884 
C 698 1124 666 881 666 690 
C 666 38 1158 -64 1421 -64 
C 1830 -64 2054 217 2182 370 
z
" transform="scale(0.015625)"/>
       <path id="CMR17-28" d="M 1958 -1561 
C 1958 -1555 1958 -1542 1939 -1523 
C 1645 -1224 858 -407 858 1581 
C 858 3569 1632 4379 1946 4697 
C 1946 4704 1958 4717 1958 4736 
C 1958 4755 1939 4768 1914 4768 
C 1843 4768 1299 4296 986 3594 
C 666 2887 576 2199 576 1588 
C 576 1128 621 351 1005 -471 
C 1312 -1135 1837 -1600 1914 -1600 
C 1946 -1600 1958 -1587 1958 -1561 
z
" transform="scale(0.015625)"/>
       <path id="CMR17-29" d="M 1683 1581 
C 1683 2040 1638 2817 1254 3639 
C 947 4303 422 4768 346 4768 
C 326 4768 301 4761 301 4729 
C 301 4717 307 4710 314 4697 
C 621 4378 1402 3568 1402 1584 
C 1402 -407 627 -1217 314 -1537 
C 307 -1549 301 -1556 301 -1568 
C 301 -1600 326 -1600 346 -1600 
C 416 -1600 960 -1128 1274 -426 
C 1594 281 1683 969 1683 1581 
z
" transform="scale(0.015625)"/>
      </defs>
      <use xlink:href="#CMMI12-75" transform="scale(0.996264)"/>
      <use xlink:href="#CMR17-28" transform="translate(55.52033 0) scale(0.996264)"/>
      <use xlink:href="#CMMI12-74" transform="translate(90.801097 0) scale(0.996264)"/>
      <use xlink:href="#CMR17-29" transform="translate(126.027428 0) scale(0.996264)"/>
     </g>
    </g>
   </g>
   <g id="text_13">
    <!-- A = 1.0, b = 0.2, w = 6.283185307179586 -->
    <g transform="translate(165.432744 38.2) scale(0.14 -0.14)">
     <defs>
      <path id="CenturySchL-Roma-41" d="M 2419 4704 
L 2150 4704 
L 678 977 
C 550 645 525 600 429 498 
C 326 377 147 300 -26 300 
L -51 300 
L -51 0 
L 1645 0 
L 1645 300 
L 1517 300 
C 1171 300 998 424 998 669 
C 998 747 1018 837 1056 941 
L 1267 1511 
L 2963 1511 
L 3309 644 
C 3347 546 3360 501 3360 468 
C 3360 365 3200 300 2963 300 
L 2694 300 
L 2694 0 
L 4678 0 
L 4678 300 
L 4589 300 
C 4269 300 4198 351 4051 709 
L 2419 4704 
z
M 2106 3670 
L 2829 1856 
L 1395 1856 
L 2106 3670 
z
" transform="scale(0.015625)"/>
      <path id="CenturySchL-Roma-3d" d="M 326 704 
L 3552 704 
L 3552 1215 
L 326 1215 
L 326 704 
z
M 326 1985 
L 3552 1985 
L 3552 2496 
L 326 2496 
L 326 1985 
z
" transform="scale(0.015625)"/>
      <path id="CenturySchL-Roma-31" d="M 2061 4512 
C 1843 4239 1254 4032 666 4032 
L 666 3750 
L 1229 3750 
C 1600 3750 1626 3725 1626 3348 
L 1626 786 
L 1626 600 
C 1626 332 1568 300 1056 300 
L 640 300 
L 640 0 
L 3174 0 
L 3174 300 
L 2822 300 
C 2483 300 2342 326 2291 390 
C 2246 434 2246 434 2246 788 
L 2246 3435 
C 2246 3749 2259 4056 2291 4512 
L 2061 4512 
z
" transform="scale(0.015625)"/>
      <path id="CenturySchL-Roma-2e" d="M 877 734 
C 653 734 474 555 474 338 
C 474 114 653 -64 870 -64 
C 1094 -64 1274 114 1274 338 
C 1274 555 1094 734 877 734 
z
" transform="scale(0.015625)"/>
      <path id="CenturySchL-Roma-30" d="M 1818 4544 
C 922 4544 269 3564 269 2224 
C 269 904 902 -64 1766 -64 
C 2662 -64 3290 872 3290 2204 
C 3290 2884 3149 3448 2880 3890 
C 2630 4294 2221 4544 1818 4544 
z
M 1773 4269 
C 1984 4269 2189 4128 2342 3872 
C 2515 3576 2573 3198 2573 2320 
C 2573 1422 2528 1000 2400 717 
C 2253 403 2022 211 1779 211 
C 1568 211 1363 352 1210 608 
C 1030 910 979 1314 979 2359 
C 979 3103 1024 3480 1152 3756 
C 1299 4083 1530 4269 1773 4269 
z
" transform="scale(0.015625)"/>
      <path id="CenturySchL-Roma-2c" d="M 557 -1163 
C 1126 -773 1395 -384 1395 63 
C 1395 447 1184 696 870 696 
C 634 696 454 530 454 313 
C 454 83 627 -64 890 -64 
C 915 -64 979 -64 992 -58 
L 1011 -58 
C 1043 -58 1056 -77 1056 -115 
C 1056 -384 838 -684 410 -984 
L 557 -1163 
z
" transform="scale(0.015625)"/>
      <path id="CenturySchL-Roma-62" d="M 1152 4672 
L 51 4672 
L 51 4366 
L 275 4366 
C 512 4366 550 4321 550 4048 
L 550 1576 
C 550 724 518 310 435 -64 
L 678 -64 
L 992 432 
C 1254 93 1555 -64 1952 -64 
C 2739 -64 3328 614 3328 1525 
C 3328 2437 2790 3077 2022 3077 
C 1632 3077 1395 2944 1152 2581 
L 1152 4672 
z
M 1907 2752 
C 2387 2752 2656 2289 2656 1459 
C 2656 660 2394 204 1926 204 
C 1421 204 1120 666 1120 1446 
C 1120 2289 1395 2752 1907 2752 
z
" transform="scale(0.015625)"/>
      <path id="CenturySchL-Roma-32" d="M 3232 1380 
L 2950 1380 
L 2886 1054 
C 2803 645 2752 600 2355 600 
L 922 600 
C 1363 1060 1510 1194 1920 1514 
C 2502 1962 2752 2186 2899 2377 
C 3104 2658 3206 2946 3206 3252 
C 3206 3975 2598 4499 1766 4499 
C 954 4499 326 3975 326 3297 
C 326 2895 531 2620 838 2620 
C 1075 2620 1235 2780 1235 3010 
C 1235 3170 1146 3317 1005 3375 
C 768 3477 755 3483 755 3566 
C 755 3662 819 3809 909 3918 
C 1069 4109 1338 4224 1638 4224 
C 2163 4224 2483 3898 2483 3362 
C 2483 2888 2259 2460 1728 1898 
L 1350 1502 
C 1126 1266 960 1086 851 965 
C 621 696 506 549 224 179 
L 224 0 
L 3110 0 
L 3232 1380 
z
" transform="scale(0.015625)"/>
      <path id="CenturySchL-Roma-77" d="M 3501 829 
L 2874 2471 
C 2854 2515 2848 2547 2848 2605 
C 2848 2720 2906 2752 3117 2752 
L 3270 2752 
L 3270 2982 
L 1837 2982 
L 1837 2752 
L 1946 2752 
C 2144 2752 2221 2701 2278 2515 
L 2336 2349 
L 1773 858 
L 1152 2464 
C 1139 2509 1126 2566 1126 2605 
C 1126 2713 1197 2752 1389 2752 
L 1504 2752 
L 1504 2982 
L 96 2982 
L 96 2752 
L 211 2752 
C 390 2752 454 2694 544 2438 
L 1504 -96 
L 1728 -96 
L 2490 1926 
L 3270 -96 
L 3469 -96 
L 4365 2265 
C 4506 2643 4614 2752 4838 2752 
L 4883 2752 
L 4883 2982 
L 3674 2982 
L 3674 2752 
L 3782 2752 
C 4006 2752 4096 2681 4096 2522 
C 4096 2458 4077 2362 4045 2285 
L 3501 829 
z
" transform="scale(0.015625)"/>
      <path id="CenturySchL-Roma-36" d="M 979 2183 
C 1043 2986 1075 3203 1216 3537 
C 1402 4001 1741 4269 2144 4269 
C 2368 4269 2502 4197 2502 4079 
C 2502 4052 2496 4033 2470 3987 
C 2406 3863 2374 3772 2374 3680 
C 2374 3458 2541 3294 2765 3294 
C 3008 3294 3187 3490 3187 3763 
C 3187 4212 2739 4544 2138 4544 
C 1613 4544 1120 4294 813 3865 
C 467 3371 269 2705 269 2006 
C 269 757 883 -64 1830 -64 
C 2246 -64 2592 76 2861 355 
C 3136 634 3302 1052 3302 1452 
C 3302 2200 2758 2758 2035 2758 
C 1600 2758 1280 2585 979 2183 
z
M 1862 2368 
C 2323 2368 2605 2008 2605 1406 
C 2605 679 2310 211 1843 211 
C 1555 211 1331 369 1178 673 
C 1075 869 1024 1084 1024 1318 
C 1024 1970 1344 2368 1862 2368 
z
" transform="scale(0.015625)"/>
      <path id="CenturySchL-Roma-38" d="M 2394 2531 
C 2874 2794 3098 3108 3098 3525 
C 3098 4115 2560 4544 1824 4544 
C 1043 4544 474 4024 474 3320 
C 474 3044 576 2757 755 2558 
C 864 2430 966 2359 1197 2237 
C 915 2129 794 2064 653 1949 
C 403 1743 262 1436 262 1109 
C 262 763 435 417 704 212 
C 954 32 1299 -64 1709 -64 
C 2182 -64 2579 64 2842 301 
C 3117 539 3283 929 3283 1321 
C 3283 1686 3142 2013 2880 2244 
C 2752 2352 2637 2423 2394 2531 
z
M 1709 2782 
C 1190 2974 966 3218 966 3590 
C 966 3993 1299 4269 1805 4269 
C 2298 4269 2624 3955 2624 3487 
C 2624 3154 2496 2936 2131 2628 
L 1709 2782 
z
M 2080 1897 
C 2566 1724 2771 1474 2771 1051 
C 2771 538 2368 211 1741 211 
C 1146 211 794 544 794 1108 
C 794 1589 992 1878 1491 2109 
L 2080 1897 
z
" transform="scale(0.015625)"/>
      <path id="CenturySchL-Roma-33" d="M 2214 2391 
C 2304 2423 2317 2423 2362 2442 
C 2810 2628 3066 2987 3066 3441 
C 3066 4108 2554 4544 1760 4544 
C 1011 4544 442 4094 442 3502 
C 442 3235 621 3046 864 3046 
C 1088 3046 1242 3203 1242 3438 
C 1242 3576 1190 3667 1043 3772 
C 979 3817 960 3850 960 3890 
C 960 4073 1338 4269 1696 4269 
C 2157 4269 2400 3976 2400 3422 
C 2400 2815 2157 2496 1696 2496 
C 1638 2496 1536 2496 1440 2496 
C 1389 2496 1338 2496 1299 2496 
C 1165 2496 1094 2440 1094 2330 
C 1094 2226 1165 2177 1293 2177 
C 1312 2177 1363 2177 1446 2177 
C 1690 2177 1696 2177 1747 2177 
C 2221 2177 2477 1845 2477 1225 
C 2477 580 2150 211 1581 211 
C 1178 211 742 425 742 620 
C 742 678 755 689 883 760 
C 1062 866 1133 974 1133 1130 
C 1133 1357 960 1528 723 1528 
C 454 1528 269 1301 269 972 
C 269 359 838 -64 1658 -64 
C 2579 -64 3187 449 3187 1237 
C 3187 1839 2874 2204 2214 2391 
z
" transform="scale(0.015625)"/>
      <path id="CenturySchL-Roma-35" d="M 1050 3821 
C 1395 3738 1574 3712 1824 3712 
C 2368 3712 2765 3904 2976 4255 
C 3046 4377 3072 4434 3072 4485 
C 3072 4524 3053 4543 3021 4543 
C 3002 4543 2970 4536 2938 4517 
C 2624 4383 2451 4351 2086 4351 
C 1677 4351 1440 4383 768 4543 
C 742 4008 685 3327 595 2538 
C 461 2398 416 2315 416 2213 
C 416 2086 499 1997 621 1997 
C 781 1997 883 2133 909 2391 
C 1133 2553 1344 2624 1600 2624 
C 2170 2624 2515 2178 2515 1440 
C 2515 1007 2406 637 2214 437 
C 2086 301 1824 211 1562 211 
C 1178 211 781 411 781 612 
C 781 658 819 709 896 754 
C 1094 877 1152 962 1152 1136 
C 1152 1363 979 1537 749 1537 
C 493 1537 288 1298 288 995 
C 288 672 474 349 762 149 
C 979 7 1242 -64 1574 -64 
C 2579 -64 3213 530 3213 1479 
C 3213 2357 2630 2944 1766 2944 
C 1498 2944 1293 2899 941 2752 
L 1050 3821 
z
" transform="scale(0.015625)"/>
      <path id="CenturySchL-Roma-37" d="M 378 2955 
L 659 2911 
L 774 3418 
C 870 3841 915 3904 1101 3904 
C 1133 3904 1190 3904 1242 3879 
C 1613 3879 2074 3879 2336 3879 
C 2426 3879 2560 3879 2733 3879 
L 2298 2998 
C 1818 2039 1766 1930 1606 1538 
C 1414 1055 1306 650 1306 379 
C 1306 90 1459 -96 1709 -96 
C 2016 -96 2138 115 2131 667 
C 2099 1583 2221 2038 2899 3537 
C 2995 3743 3091 3942 3187 4140 
C 3194 4153 3213 4211 3251 4294 
L 3251 4479 
C 2854 4473 2643 4473 2253 4473 
C 1709 4473 1274 4473 576 4473 
L 378 2955 
z
" transform="scale(0.015625)"/>
      <path id="CenturySchL-Roma-39" d="M 2586 2246 
C 2502 1474 2470 1283 2355 957 
C 2189 486 1837 211 1408 211 
C 1197 211 1050 275 1050 370 
C 1050 395 1062 427 1088 478 
C 1165 632 1178 671 1178 760 
C 1178 970 1011 1136 800 1136 
C 557 1136 365 932 365 676 
C 365 256 813 -64 1402 -64 
C 1984 -64 2483 199 2797 673 
C 3110 1147 3283 1769 3283 2429 
C 3283 3717 2669 4544 1715 4544 
C 896 4544 250 3863 250 2995 
C 250 2230 787 1665 1517 1665 
C 1971 1665 2240 1812 2586 2246 
z
M 1741 4269 
C 2214 4269 2528 3792 2528 3072 
C 2528 2808 2477 2570 2381 2422 
C 2234 2190 1984 2048 1709 2048 
C 1222 2048 947 2428 947 3110 
C 947 3419 1018 3722 1139 3915 
C 1286 4166 1459 4269 1741 4269 
z
" transform="scale(0.015625)"/>
     </defs>
     <use xlink:href="#CenturySchL-Roma-41" transform="scale(0.996264)"/>
     <use xlink:href="#CenturySchL-Roma-3d" transform="translate(99.625154 0) scale(0.996264)"/>
     <use xlink:href="#CenturySchL-Roma-31" transform="translate(187.693336 0) scale(0.996264)"/>
     <use xlink:href="#CenturySchL-Roma-2e" transform="translate(243.085013 0) scale(0.996264)"/>
     <use xlink:href="#CenturySchL-Roma-30" transform="translate(270.780183 0) scale(0.996264)"/>
     <use xlink:href="#CenturySchL-Roma-2c" transform="translate(326.17186 0) scale(0.996264)"/>
     <use xlink:href="#CenturySchL-Roma-62" transform="translate(381.562199 0) scale(0.996264)"/>
     <use xlink:href="#CenturySchL-Roma-3d" transform="translate(464.649046 0) scale(0.996264)"/>
     <use xlink:href="#CenturySchL-Roma-30" transform="translate(552.717227 0) scale(0.996264)"/>
     <use xlink:href="#CenturySchL-Roma-2e" transform="translate(608.108904 0) scale(0.996264)"/>
     <use xlink:href="#CenturySchL-Roma-32" transform="translate(635.804074 0) scale(0.996264)"/>
     <use xlink:href="#CenturySchL-Roma-2c" transform="translate(691.195751 0) scale(0.996264)"/>
     <use xlink:href="#CenturySchL-Roma-77" transform="translate(746.58609 0) scale(0.996264)"/>
     <use xlink:href="#CenturySchL-Roma-3d" transform="translate(851.78963 0) scale(0.996264)"/>
     <use xlink:href="#CenturySchL-Roma-36" transform="translate(939.857812 0) scale(0.996264)"/>
     <use xlink:href="#CenturySchL-Roma-2e" transform="translate(995.249489 0) scale(0.996264)"/>
     <use xlink:href="#CenturySchL-Roma-32" transform="translate(1022.944658 0) scale(0.996264)"/>
     <use xlink:href="#CenturySchL-Roma-38" transform="translate(1078.336335 0) scale(0.996264)"/>
     <use xlink:href="#CenturySchL-Roma-33" transform="translate(1133.728012 0) scale(0.996264)"/>
     <use xlink:href="#CenturySchL-Roma-31" transform="translate(1189.119689 0) scale(0.996264)"/>
     <use xlink:href="#CenturySchL-Roma-38" transform="translate(1244.511366 0) scale(0.996264)"/>
     <use xlink:href="#CenturySchL-Roma-35" transform="translate(1299.903043 0) scale(0.996264)"/>
     <use xlink:href="#CenturySchL-Roma-33" transform="translate(1355.29472 0) scale(0.996264)"/>
     <use xlink:href="#CenturySchL-Roma-30" transform="translate(1410.686397 0) scale(0.996264)"/>
     <use xlink:href="#CenturySchL-Roma-37" transform="translate(1466.078074 0) scale(0.996264)"/>
     <use xlink:href="#CenturySchL-Roma-31" transform="translate(1521.469751 0) scale(0.996264)"/>
     <use xlink:href="#CenturySchL-Roma-37" transform="translate(1576.861428 0) scale(0.996264)"/>
     <use xlink:href="#CenturySchL-Roma-39" transform="translate(1632.253105 0) scale(0.996264)"/>
     <use xlink:href="#CenturySchL-Roma-35" transform="translate(1687.644782 0) scale(0.996264)"/>
     <use xlink:href="#CenturySchL-Roma-38" transform="translate(1743.036459 0) scale(0.996264)"/>
     <use xlink:href="#CenturySchL-Roma-36" transform="translate(1798.428136 0) scale(0.996264)"/>
    </g>
   </g>
  </g>
 </g>
 <defs>
  <clipPath id="p9720f3a688">
   <rect x="72" y="43.2" width="446.4" height="345.6"/>
  </clipPath>
 </defs>
</svg>
