<?xml version="1.0" encoding="utf-8" standalone="no"?>
<!DOCTYPE svg PUBLIC "-//W3C//DTD SVG 1.1//EN"
  "http://www.w3.org/Graphics/SVG/1.1/DTD/svg11.dtd">
<svg xmlns:xlink="http://www.w3.org/1999/xlink" width="576pt" height="432pt" viewBox="0 0 576 432" xmlns="http://www.w3.org/2000/svg" version="1.1">
 <metadata>
  <rdf:RDF xmlns:dc="http://purl.org/dc/elements/1.1/" xmlns:cc="http://creativecommons.org/ns#" xmlns:rdf="http://www.w3.org/1999/02/22-rdf-syntax-ns#">
   <cc:Work>
    <dc:type rdf:resource="http://purl.org/dc/dcmitype/StillImage"/>
    <dc:date>2024-11-05T18:20:07.320993</dc:date>
    <dc:format>image/svg+xml</dc:format>
    <dc:creator>
     <cc:Agent>
      <dc:title>Matplotlib v3.9.2, https://matplotlib.org/</dc:title>
     </cc:Agent>
    </dc:creator>
   </cc:Work>
  </rdf:RDF>
 </metadata>
 <defs>
  <style type="text/css">*{stroke-linejoin: round; stroke-linecap: butt}</style>
 </defs>
 <g id="figure_1">
  <g id="patch_1">
   <path d="M 0 432 
L 576 432 
L 576 0 
L 0 0 
z
" style="fill: #ffffff"/>
  </g>
  <g id="axes_1">
   <g id="patch_2">
    <path d="M 72 388.8 
L 518.4 388.8 
L 518.4 43.2 
L 72 43.2 
z
" style="fill: #ffffff"/>
   </g>
   <g id="line2d_1">
    <path d="M 72 43.2 
L 72.8928 56.295729 
L 73.7856 91.536777 
L 74.6784 143.737834 
L 77.3568 322.252105 
L 78.2496 361.197618 
L 79.1424 379.402798 
L 80.0352 374.57282 
L 80.928 347.656927 
L 81.8208 302.677171 
L 84.4992 130.86906 
L 85.392 88.234123 
L 86.2848 63.949315 
L 87.1776 61.186943 
L 88.0704 80.076028 
L 88.9632 117.720583 
L 90.7488 225.565699 
L 91.6416 280.476492 
L 92.5344 325.728625 
L 93.4272 355.118181 
L 94.32 364.730338 
L 95.2128 353.45874 
L 96.1056 323.126489 
L 96.9984 278.196622 
L 99.6768 124.547966 
L 100.5696 91.027252 
L 101.4624 75.357909 
L 102.3552 79.515109 
L 103.248 102.681833 
L 104.1408 141.396267 
L 106.8192 289.272879 
L 107.712 325.969109 
L 108.6048 346.871238 
L 109.4976 349.248833 
L 110.3904 332.990847 
L 111.2832 300.589878 
L 113.0688 207.766727 
L 113.9616 160.504569 
L 114.8544 121.555697 
L 115.7472 96.259872 
L 116.64 87.986611 
L 117.5328 97.688166 
L 118.4256 123.795377 
L 119.3184 162.466871 
L 121.9968 294.713495 
L 122.8896 323.565041 
L 123.7824 337.05177 
L 124.6752 333.473635 
L 125.568 313.53385 
L 126.4608 280.212028 
L 129.1392 152.933448 
L 130.032 121.348711 
L 130.9248 103.358082 
L 131.8176 101.311667 
L 132.7104 115.305045 
L 133.6032 143.192817 
L 135.3888 223.086444 
L 136.2816 263.76536 
L 137.1744 297.288965 
L 138.0672 319.061284 
L 138.96 326.182145 
L 139.8528 317.831939 
L 140.7456 295.361255 
L 141.6384 262.076391 
L 144.3168 148.250667 
L 145.2096 123.417911 
L 146.1024 111.809776 
L 146.9952 114.889506 
L 147.888 132.051837 
L 148.7808 160.732195 
L 151.4592 270.281884 
L 152.352 297.46712 
L 153.2448 312.951798 
L 154.1376 314.713163 
L 155.0304 302.668951 
L 155.9232 278.665723 
L 157.7088 209.900641 
L 158.6016 174.887973 
L 159.4944 146.03394 
L 160.3872 127.294331 
L 161.28 121.165349 
L 162.1728 128.352438 
L 163.0656 147.693135 
L 163.9584 176.341683 
L 166.6368 274.312391 
L 167.5296 295.686142 
L 168.4224 305.677357 
L 169.3152 303.026609 
L 170.208 288.254853 
L 171.1008 263.56944 
L 173.7792 169.27915 
L 174.672 145.8806 
L 175.5648 132.552815 
L 176.4576 131.036793 
L 177.3504 141.403343 
L 178.2432 162.063112 
L 180.0288 221.249767 
L 180.9216 251.385449 
L 181.8144 276.220346 
L 182.7072 292.349677 
L 183.6 297.62494 
L 184.4928 291.438956 
L 185.3856 274.792264 
L 186.2784 250.13423 
L 188.9568 165.81006 
L 189.8496 147.413502 
L 190.7424 138.813984 
L 191.6352 141.095503 
L 192.528 153.809671 
L 193.4208 175.056603 
L 196.0992 256.213009 
L 196.992 276.352327 
L 197.8848 287.823658 
L 198.7776 289.12851 
L 199.6704 280.205938 
L 200.5632 262.423909 
L 202.3488 211.481484 
L 203.2416 185.543462 
L 204.1344 164.167868 
L 205.0272 150.285224 
L 205.92 145.744763 
L 206.8128 151.069089 
L 207.7056 165.39703 
L 208.5984 186.620396 
L 211.2768 259.198882 
L 212.1696 275.032946 
L 213.0624 282.43462 
L 213.9552 280.470898 
L 214.848 269.527712 
L 215.7408 251.240308 
L 218.4192 181.388343 
L 219.312 164.054271 
L 220.2048 154.180805 
L 221.0976 153.057708 
L 221.9904 160.737437 
L 222.8832 176.042571 
L 224.6688 219.889123 
L 225.5616 242.214185 
L 226.4544 260.61233 
L 227.3472 272.561232 
L 228.24 276.469243 
L 229.1328 271.886553 
L 230.0256 259.55438 
L 230.9184 241.28726 
L 233.5968 178.818378 
L 234.4896 165.189872 
L 235.3824 158.819193 
L 236.2752 160.509384 
L 237.168 169.928271 
L 238.0608 185.668386 
L 240.7392 245.79053 
L 241.632 260.710103 
L 242.5248 269.208275 
L 243.4176 270.174933 
L 244.3104 263.564929 
L 245.2032 250.391678 
L 246.9888 212.652601 
L 247.8816 193.437241 
L 248.7744 177.601812 
L 249.6672 167.317297 
L 250.56 163.95364 
L 251.4528 167.897998 
L 252.3456 178.512398 
L 253.2384 194.235054 
L 255.9168 248.002519 
L 256.8096 259.732682 
L 257.7024 265.215977 
L 258.5952 263.761216 
L 259.488 255.654304 
L 260.3808 242.106662 
L 263.0592 190.359054 
L 263.952 177.517657 
L 264.8448 170.203214 
L 265.7376 169.371203 
L 266.6304 175.060486 
L 267.5232 186.398808 
L 269.3088 218.881133 
L 270.2016 235.419946 
L 271.0944 249.049627 
L 271.9872 257.901591 
L 272.88 260.796717 
L 273.7728 257.401777 
L 274.6656 248.265878 
L 275.5584 234.733263 
L 278.2368 188.455177 
L 279.1296 178.358932 
L 280.0224 173.639416 
L 280.9152 174.891541 
L 281.808 181.869224 
L 282.7008 193.529788 
L 285.3792 238.069367 
L 286.272 249.122059 
L 287.1648 255.417659 
L 288.0576 256.133777 
L 288.9504 251.236966 
L 289.8432 241.477982 
L 291.6288 213.520186 
L 292.5216 199.285097 
L 293.4144 187.553923 
L 294.3072 179.934966 
L 295.2 177.443108 
L 296.0928 180.365161 
L 296.9856 188.228501 
L 297.8784 199.876131 
L 300.5568 239.708049 
L 301.4496 248.397968 
L 302.3424 252.460092 
L 303.2352 251.382379 
L 304.128 245.376631 
L 305.0208 235.340291 
L 307.6992 197.00472 
L 308.592 187.491579 
L 309.4848 182.072906 
L 310.3776 181.456538 
L 311.2704 185.671262 
L 312.1632 194.070898 
L 313.9488 218.134396 
L 314.8416 230.38665 
L 315.7344 240.483766 
L 316.6272 247.041462 
L 317.52 249.186224 
L 318.4128 246.671191 
L 319.3056 239.903151 
L 320.1984 229.877942 
L 322.8768 195.594293 
L 323.7696 188.114811 
L 324.6624 184.618508 
L 325.5552 185.546104 
L 326.448 190.715299 
L 327.3408 199.353657 
L 330.0192 232.349389 
L 330.912 240.537425 
L 331.8048 245.20132 
L 332.6976 245.731833 
L 333.5904 242.104186 
L 334.4832 234.874553 
L 336.2688 214.162908 
L 337.1616 203.617296 
L 338.0544 194.926628 
L 338.9472 189.282366 
L 339.84 187.436352 
L 340.7328 189.601062 
L 341.6256 195.426368 
L 342.5184 204.055144 
L 345.1968 233.563355 
L 346.0896 240.001005 
L 346.9824 243.010301 
L 347.8752 242.211911 
L 348.768 237.762744 
L 349.6608 230.32764 
L 352.3392 201.92795 
L 353.232 194.880443 
L 354.1248 190.866191 
L 355.0176 190.409574 
L 355.9104 193.531919 
L 356.8032 199.754522 
L 358.5888 217.581199 
L 359.4816 226.657892 
L 360.3744 234.13802 
L 361.2672 238.996081 
L 362.16 240.58496 
L 363.0528 238.721777 
L 363.9456 233.707889 
L 364.8384 226.281033 
L 367.5168 200.88308 
L 368.4096 195.342144 
L 369.3024 192.752019 
L 370.1952 193.439199 
L 371.088 197.268633 
L 371.9808 203.668086 
L 374.6592 228.111925 
L 375.552 234.177771 
L 376.4448 237.63287 
L 377.3376 238.025884 
L 378.2304 235.338457 
L 379.1232 229.982613 
L 380.9088 214.639049 
L 381.8016 206.826667 
L 382.6944 200.388462 
L 383.5872 196.20709 
L 384.48 194.839529 
L 385.3728 196.443185 
L 386.2656 200.758678 
L 387.1584 207.151033 
L 389.8368 229.011253 
L 390.7296 233.780382 
L 391.6224 236.009723 
L 392.5152 235.418261 
L 393.408 232.122237 
L 394.3008 226.614177 
L 396.9792 205.575169 
L 397.872 200.354247 
L 398.7648 197.380416 
L 399.6576 197.042146 
L 400.5504 199.355236 
L 401.4432 203.965054 
L 403.2288 217.171381 
L 404.1216 223.895561 
L 405.0144 229.436976 
L 405.9072 233.035916 
L 406.8 234.212986 
L 407.6928 232.832706 
L 408.5856 229.118327 
L 409.4784 223.616376 
L 412.1568 204.801111 
L 413.0496 200.696284 
L 413.9424 198.777472 
L 414.8352 199.286548 
L 415.728 202.123462 
L 416.6208 206.864293 
L 419.2992 224.972735 
L 420.192 229.466424 
L 421.0848 232.026024 
L 421.9776 232.317176 
L 422.8704 230.326281 
L 423.7632 226.358574 
L 425.5488 214.991783 
L 426.4416 209.204228 
L 427.3344 204.434688 
L 428.2272 201.337052 
L 429.12 200.323938 
L 430.0128 201.511955 
L 430.9056 204.708951 
L 431.7984 209.444524 
L 434.4768 225.638973 
L 435.3696 229.172031 
L 436.2624 230.823567 
L 437.1552 230.385402 
L 438.048 227.943647 
L 438.9408 223.863176 
L 441.6192 208.277095 
L 442.512 204.409341 
L 443.4048 202.206273 
L 444.2976 201.955676 
L 445.1904 203.669255 
L 446.0832 207.084292 
L 447.8688 216.867781 
L 448.7616 221.849175 
L 449.6544 225.954356 
L 450.5472 228.620517 
L 451.44 229.492512 
L 452.3328 228.469976 
L 453.2256 225.718296 
L 454.1184 221.64235 
L 456.7968 207.703659 
L 457.6896 204.662728 
L 458.5824 203.241237 
L 459.4752 203.61837 
L 460.368 205.720008 
L 461.2608 209.232102 
L 463.9392 222.647166 
L 464.832 225.976173 
L 465.7248 227.872371 
L 466.6176 228.088061 
L 467.5104 226.61317 
L 468.4032 223.673821 
L 470.1888 215.253094 
L 471.0816 210.965568 
L 471.9744 207.432206 
L 472.8672 205.137421 
L 473.76 204.386887 
L 474.6528 205.266993 
L 475.5456 207.635385 
L 476.4384 211.143584 
L 479.1168 223.140727 
L 480.0096 225.75808 
L 480.9024 226.981569 
L 481.7952 226.656968 
L 482.688 224.848071 
L 483.5808 221.825184 
L 486.2592 210.278732 
L 487.152 207.413429 
L 488.0448 205.781356 
L 488.9376 205.595709 
L 489.8304 206.86516 
L 490.7232 209.395081 
L 492.5088 216.642868 
L 493.4016 220.333176 
L 494.2944 223.374369 
L 495.1872 225.349509 
L 496.08 225.995499 
L 496.9728 225.237985 
L 497.8656 223.199491 
L 498.7584 220.179956 
L 501.4368 209.853919 
L 502.3296 207.601142 
L 503.2224 206.548076 
L 504.1152 206.827463 
L 505.008 208.384394 
L 505.9008 210.986218 
L 508.5792 220.924341 
L 509.472 223.39053 
L 510.3648 224.795269 
L 511.2576 224.955056 
L 512.1504 223.86243 
L 513.0432 221.684906 
L 514.8288 215.446679 
L 515.7216 212.270401 
L 516.6144 209.652822 
L 517.5072 207.952803 
L 518.4 207.396795 
L 518.4 207.396795 
" clip-path="url(#pfe2272f4ac)" style="fill: none; stroke: #ff0000; stroke-linecap: square"/>
   </g>
   <g id="patch_3">
    <path d="M 72 388.8 
L 72 43.2 
" style="fill: none; stroke: #000000; stroke-linejoin: miter; stroke-linecap: square"/>
   </g>
   <g id="patch_4">
    <path d="M 518.4 388.8 
L 518.4 43.2 
" style="fill: none; stroke: #000000; stroke-linejoin: miter; stroke-linecap: square"/>
   </g>
   <g id="patch_5">
    <path d="M 72 388.8 
L 518.4 388.8 
" style="fill: none; stroke: #000000; stroke-linejoin: miter; stroke-linecap: square"/>
   </g>
   <g id="patch_6">
    <path d="M 72 43.2 
L 518.4 43.2 
" style="fill: none; stroke: #000000; stroke-linejoin: miter; stroke-linecap: square"/>
   </g>
   <g id="matplotlib.axis_1">
    <g id="xtick_1">
     <g id="line2d_2">
      <path d="M 72 388.8 
L 72 43.2 
" clip-path="url(#pfe2272f4ac)" style="fill: none; stroke-dasharray: 1,3; stroke-dashoffset: 0; stroke: #000000; stroke-width: 0.5"/>
     </g>
     <g id="line2d_3">
      <defs>
       <path id="m23dc1b5001" d="M 0 0 
L 0 -4 
" style="stroke: #000000; stroke-width: 0.5"/>
      </defs>
      <g>
       <use xlink:href="#m23dc1b5001" x="72" y="388.8" style="stroke: #000000; stroke-width: 0.5"/>
      </g>
     </g>
     <g id="line2d_4">
      <defs>
       <path id="m2e73448991" d="M 0 0 
L 0 4 
" style="stroke: #000000; stroke-width: 0.5"/>
      </defs>
      <g>
       <use xlink:href="#m2e73448991" x="72" y="43.2" style="stroke: #000000; stroke-width: 0.5"/>
      </g>
     </g>
     <g id="text_1">
      <!-- $\mathdefault{0}$ -->
      <g transform="translate(69.073505 401.67065) scale(0.12 -0.12)">
       <defs>
        <path id="CMR17-30" d="M 2688 2025 
C 2688 2416 2682 3080 2413 3591 
C 2176 4039 1798 4198 1466 4198 
C 1158 4198 768 4058 525 3597 
C 269 3118 243 2524 243 2025 
C 243 1661 250 1106 448 619 
C 723 -39 1216 -128 1466 -128 
C 1760 -128 2208 -7 2470 600 
C 2662 1042 2688 1559 2688 2025 
z
M 1466 -26 
C 1056 -26 813 325 723 812 
C 653 1188 653 1738 653 2096 
C 653 2588 653 2997 736 3387 
C 858 3929 1216 4096 1466 4096 
C 1728 4096 2067 3923 2189 3400 
C 2272 3036 2278 2607 2278 2096 
C 2278 1680 2278 1169 2202 792 
C 2067 95 1690 -26 1466 -26 
z
" transform="scale(0.015625)"/>
       </defs>
       <use xlink:href="#CMR17-30" transform="scale(0.996264)"/>
      </g>
     </g>
    </g>
    <g id="xtick_2">
     <g id="line2d_5">
      <path d="M 146.4 388.8 
L 146.4 43.2 
" clip-path="url(#pfe2272f4ac)" style="fill: none; stroke-dasharray: 1,3; stroke-dashoffset: 0; stroke: #000000; stroke-width: 0.5"/>
     </g>
     <g id="line2d_6">
      <g>
       <use xlink:href="#m23dc1b5001" x="146.4" y="388.8" style="stroke: #000000; stroke-width: 0.5"/>
      </g>
     </g>
     <g id="line2d_7">
      <g>
       <use xlink:href="#m2e73448991" x="146.4" y="43.2" style="stroke: #000000; stroke-width: 0.5"/>
      </g>
     </g>
     <g id="text_2">
      <!-- $\mathdefault{5}$ -->
      <g transform="translate(143.473505 401.67065) scale(0.12 -0.12)">
       <defs>
        <path id="CMR17-35" d="M 730 3692 
C 794 3666 1056 3584 1325 3584 
C 1920 3584 2246 3911 2432 4100 
C 2432 4157 2432 4192 2394 4192 
C 2387 4192 2374 4192 2323 4163 
C 2099 4058 1837 3973 1517 3973 
C 1325 3973 1037 3999 723 4139 
C 653 4171 640 4171 634 4171 
C 602 4171 595 4164 595 4037 
L 595 2203 
C 595 2089 595 2057 659 2057 
C 691 2057 704 2070 736 2114 
C 941 2401 1222 2522 1542 2522 
C 1766 2522 2246 2382 2246 1289 
C 2246 1085 2246 715 2054 421 
C 1894 159 1645 25 1370 25 
C 947 25 518 320 403 814 
C 429 807 480 795 506 795 
C 589 795 749 840 749 1038 
C 749 1210 627 1280 506 1280 
C 358 1280 262 1190 262 1011 
C 262 454 704 -128 1382 -128 
C 2042 -128 2669 440 2669 1264 
C 2669 2030 2170 2624 1549 2624 
C 1222 2624 947 2503 730 2274 
L 730 3692 
z
" transform="scale(0.015625)"/>
       </defs>
       <use xlink:href="#CMR17-35" transform="scale(0.996264)"/>
      </g>
     </g>
    </g>
    <g id="xtick_3">
     <g id="line2d_8">
      <path d="M 220.8 388.8 
L 220.8 43.2 
" clip-path="url(#pfe2272f4ac)" style="fill: none; stroke-dasharray: 1,3; stroke-dashoffset: 0; stroke: #000000; stroke-width: 0.5"/>
     </g>
     <g id="line2d_9">
      <g>
       <use xlink:href="#m23dc1b5001" x="220.8" y="388.8" style="stroke: #000000; stroke-width: 0.5"/>
      </g>
     </g>
     <g id="line2d_10">
      <g>
       <use xlink:href="#m2e73448991" x="220.8" y="43.2" style="stroke: #000000; stroke-width: 0.5"/>
      </g>
     </g>
     <g id="text_3">
      <!-- $\mathdefault{10}$ -->
      <g transform="translate(214.94701 401.67065) scale(0.12 -0.12)">
       <defs>
        <path id="CMR17-31" d="M 1702 4058 
C 1702 4192 1696 4192 1606 4192 
C 1357 3916 979 3827 621 3827 
C 602 3827 570 3827 563 3808 
C 557 3795 557 3782 557 3648 
C 755 3648 1088 3686 1344 3839 
L 1344 461 
C 1344 236 1331 160 781 160 
L 589 160 
L 589 0 
C 896 0 1216 0 1523 0 
C 1830 0 2150 0 2458 0 
L 2458 160 
L 2266 160 
C 1715 160 1702 230 1702 458 
L 1702 4058 
z
" transform="scale(0.015625)"/>
       </defs>
       <use xlink:href="#CMR17-31" transform="scale(0.996264)"/>
       <use xlink:href="#CMR17-30" transform="translate(45.690477 0) scale(0.996264)"/>
      </g>
     </g>
    </g>
    <g id="xtick_4">
     <g id="line2d_11">
      <path d="M 295.2 388.8 
L 295.2 43.2 
" clip-path="url(#pfe2272f4ac)" style="fill: none; stroke-dasharray: 1,3; stroke-dashoffset: 0; stroke: #000000; stroke-width: 0.5"/>
     </g>
     <g id="line2d_12">
      <g>
       <use xlink:href="#m23dc1b5001" x="295.2" y="388.8" style="stroke: #000000; stroke-width: 0.5"/>
      </g>
     </g>
     <g id="line2d_13">
      <g>
       <use xlink:href="#m2e73448991" x="295.2" y="43.2" style="stroke: #000000; stroke-width: 0.5"/>
      </g>
     </g>
     <g id="text_4">
      <!-- $\mathdefault{15}$ -->
      <g transform="translate(289.34701 401.67065) scale(0.12 -0.12)">
       <use xlink:href="#CMR17-31" transform="scale(0.996264)"/>
       <use xlink:href="#CMR17-35" transform="translate(45.690477 0) scale(0.996264)"/>
      </g>
     </g>
    </g>
    <g id="xtick_5">
     <g id="line2d_14">
      <path d="M 369.6 388.8 
L 369.6 43.2 
" clip-path="url(#pfe2272f4ac)" style="fill: none; stroke-dasharray: 1,3; stroke-dashoffset: 0; stroke: #000000; stroke-width: 0.5"/>
     </g>
     <g id="line2d_15">
      <g>
       <use xlink:href="#m23dc1b5001" x="369.6" y="388.8" style="stroke: #000000; stroke-width: 0.5"/>
      </g>
     </g>
     <g id="line2d_16">
      <g>
       <use xlink:href="#m2e73448991" x="369.6" y="43.2" style="stroke: #000000; stroke-width: 0.5"/>
      </g>
     </g>
     <g id="text_5">
      <!-- $\mathdefault{20}$ -->
      <g transform="translate(363.74701 401.67065) scale(0.12 -0.12)">
       <defs>
        <path id="CMR17-32" d="M 2669 989 
L 2554 989 
C 2490 536 2438 459 2413 420 
C 2381 369 1920 369 1830 369 
L 602 369 
C 832 619 1280 1072 1824 1597 
C 2214 1967 2669 2402 2669 3035 
C 2669 3790 2067 4224 1395 4224 
C 691 4224 262 3604 262 3030 
C 262 2780 448 2748 525 2748 
C 589 2748 781 2787 781 3010 
C 781 3207 614 3264 525 3264 
C 486 3264 448 3258 422 3245 
C 544 3790 915 4058 1306 4058 
C 1862 4058 2227 3617 2227 3035 
C 2227 2479 1901 2000 1536 1584 
L 262 146 
L 262 0 
L 2515 0 
L 2669 989 
z
" transform="scale(0.015625)"/>
       </defs>
       <use xlink:href="#CMR17-32" transform="scale(0.996264)"/>
       <use xlink:href="#CMR17-30" transform="translate(45.690477 0) scale(0.996264)"/>
      </g>
     </g>
    </g>
    <g id="xtick_6">
     <g id="line2d_17">
      <path d="M 444 388.8 
L 444 43.2 
" clip-path="url(#pfe2272f4ac)" style="fill: none; stroke-dasharray: 1,3; stroke-dashoffset: 0; stroke: #000000; stroke-width: 0.5"/>
     </g>
     <g id="line2d_18">
      <g>
       <use xlink:href="#m23dc1b5001" x="444" y="388.8" style="stroke: #000000; stroke-width: 0.5"/>
      </g>
     </g>
     <g id="line2d_19">
      <g>
       <use xlink:href="#m2e73448991" x="444" y="43.2" style="stroke: #000000; stroke-width: 0.5"/>
      </g>
     </g>
     <g id="text_6">
      <!-- $\mathdefault{25}$ -->
      <g transform="translate(438.14701 401.67065) scale(0.12 -0.12)">
       <use xlink:href="#CMR17-32" transform="scale(0.996264)"/>
       <use xlink:href="#CMR17-35" transform="translate(45.690477 0) scale(0.996264)"/>
      </g>
     </g>
    </g>
    <g id="xtick_7">
     <g id="line2d_20">
      <path d="M 518.4 388.8 
L 518.4 43.2 
" clip-path="url(#pfe2272f4ac)" style="fill: none; stroke-dasharray: 1,3; stroke-dashoffset: 0; stroke: #000000; stroke-width: 0.5"/>
     </g>
     <g id="line2d_21">
      <g>
       <use xlink:href="#m23dc1b5001" x="518.4" y="388.8" style="stroke: #000000; stroke-width: 0.5"/>
      </g>
     </g>
     <g id="line2d_22">
      <g>
       <use xlink:href="#m2e73448991" x="518.4" y="43.2" style="stroke: #000000; stroke-width: 0.5"/>
      </g>
     </g>
     <g id="text_7">
      <!-- $\mathdefault{30}$ -->
      <g transform="translate(512.54701 401.67065) scale(0.12 -0.12)">
       <defs>
        <path id="CMR17-33" d="M 1414 2157 
C 1984 2157 2234 1662 2234 1090 
C 2234 320 1824 25 1453 25 
C 1114 25 563 194 390 693 
C 422 680 454 680 486 680 
C 640 680 755 782 755 948 
C 755 1133 614 1216 486 1216 
C 378 1216 211 1165 211 926 
C 211 335 787 -128 1466 -128 
C 2176 -128 2720 430 2720 1085 
C 2720 1707 2208 2157 1600 2227 
C 2086 2328 2554 2756 2554 3329 
C 2554 3820 2048 4179 1472 4179 
C 890 4179 378 3829 378 3329 
C 378 3110 544 3072 627 3072 
C 762 3072 877 3155 877 3321 
C 877 3486 762 3569 627 3569 
C 602 3569 570 3569 544 3557 
C 730 3959 1235 4032 1459 4032 
C 1683 4032 2106 3925 2106 3320 
C 2106 3143 2080 2828 1862 2550 
C 1670 2304 1453 2304 1242 2284 
C 1210 2284 1062 2269 1037 2269 
C 992 2263 966 2257 966 2208 
C 966 2163 973 2157 1101 2157 
L 1414 2157 
z
" transform="scale(0.015625)"/>
       </defs>
       <use xlink:href="#CMR17-33" transform="scale(0.996264)"/>
       <use xlink:href="#CMR17-30" transform="translate(45.690477 0) scale(0.996264)"/>
      </g>
     </g>
    </g>
    <g id="text_8">
     <!-- $t$ -->
     <g transform="translate(292.734157 419.29117) scale(0.14 -0.14)">
      <defs>
       <path id="CMMI12-74" d="M 1286 2566 
L 1875 2566 
C 1997 2566 2061 2566 2061 2681 
C 2061 2752 2022 2752 1894 2752 
L 1331 2752 
L 1568 3692 
C 1594 3781 1594 3794 1594 3840 
C 1594 3943 1510 4000 1427 4000 
C 1376 4000 1229 3981 1178 3775 
L 928 2752 
L 326 2752 
C 198 2752 141 2752 141 2630 
C 141 2566 186 2566 307 2566 
L 877 2566 
L 454 881 
C 403 658 384 594 384 511 
C 384 211 595 -64 954 -64 
C 1600 -64 1946 868 1946 912 
C 1946 951 1920 970 1882 970 
C 1869 970 1843 970 1830 944 
C 1824 938 1818 931 1773 829 
C 1638 511 1344 64 973 64 
C 781 64 768 224 768 364 
C 768 370 768 492 787 568 
L 1286 2566 
z
" transform="scale(0.015625)"/>
      </defs>
      <use xlink:href="#CMMI12-74" transform="scale(0.996264)"/>
     </g>
    </g>
   </g>
   <g id="matplotlib.axis_2">
    <g id="ytick_1">
     <g id="line2d_23">
      <path d="M 72 388.8 
L 518.4 388.8 
" clip-path="url(#pfe2272f4ac)" style="fill: none; stroke-dasharray: 1,3; stroke-dashoffset: 0; stroke: #000000; stroke-width: 0.5"/>
     </g>
     <g id="line2d_24">
      <defs>
       <path id="m9faa797893" d="M 0 0 
L 4 0 
" style="stroke: #000000; stroke-width: 0.5"/>
      </defs>
      <g>
       <use xlink:href="#m9faa797893" x="72" y="388.8" style="stroke: #000000; stroke-width: 0.5"/>
      </g>
     </g>
     <g id="line2d_25">
      <defs>
       <path id="ma0fcaa4d40" d="M 0 0 
L -4 0 
" style="stroke: #000000; stroke-width: 0.5"/>
      </defs>
      <g>
       <use xlink:href="#ma0fcaa4d40" x="518.4" y="388.8" style="stroke: #000000; stroke-width: 0.5"/>
      </g>
     </g>
     <g id="text_9">
      <!-- $\mathdefault{−1.0}$ -->
      <g transform="translate(43.743869 392.099608) scale(0.12 -0.12)">
       <defs>
        <path id="CMSY10-0" d="M 4218 1472 
C 4326 1472 4442 1472 4442 1600 
C 4442 1728 4326 1728 4218 1728 
L 755 1728 
C 646 1728 531 1728 531 1600 
C 531 1472 646 1472 755 1472 
L 4218 1472 
z
" transform="scale(0.015625)"/>
        <path id="CMMI12-3a" d="M 1178 307 
C 1178 492 1024 619 870 619 
C 685 619 557 466 557 313 
C 557 128 710 0 864 0 
C 1050 0 1178 153 1178 307 
z
" transform="scale(0.015625)"/>
       </defs>
       <use xlink:href="#CMSY10-0" transform="scale(0.996264)"/>
       <use xlink:href="#CMR17-31" transform="translate(77.487468 0) scale(0.996264)"/>
       <use xlink:href="#CMMI12-3a" transform="translate(123.177945 0) scale(0.996264)"/>
       <use xlink:href="#CMR17-30" transform="translate(150.275122 0) scale(0.996264)"/>
      </g>
     </g>
    </g>
    <g id="ytick_2">
     <g id="line2d_26">
      <path d="M 72 302.4 
L 518.4 302.4 
" clip-path="url(#pfe2272f4ac)" style="fill: none; stroke-dasharray: 1,3; stroke-dashoffset: 0; stroke: #000000; stroke-width: 0.5"/>
     </g>
     <g id="line2d_27">
      <g>
       <use xlink:href="#m9faa797893" x="72" y="302.4" style="stroke: #000000; stroke-width: 0.5"/>
      </g>
     </g>
     <g id="line2d_28">
      <g>
       <use xlink:href="#ma0fcaa4d40" x="518.4" y="302.4" style="stroke: #000000; stroke-width: 0.5"/>
      </g>
     </g>
     <g id="text_10">
      <!-- $\mathdefault{−0.5}$ -->
      <g transform="translate(43.743869 305.699608) scale(0.12 -0.12)">
       <use xlink:href="#CMSY10-0" transform="scale(0.996264)"/>
       <use xlink:href="#CMR17-30" transform="translate(77.487468 0) scale(0.996264)"/>
       <use xlink:href="#CMMI12-3a" transform="translate(123.177945 0) scale(0.996264)"/>
       <use xlink:href="#CMR17-35" transform="translate(150.275122 0) scale(0.996264)"/>
      </g>
     </g>
    </g>
    <g id="ytick_3">
     <g id="line2d_29">
      <path d="M 72 216 
L 518.4 216 
" clip-path="url(#pfe2272f4ac)" style="fill: none; stroke-dasharray: 1,3; stroke-dashoffset: 0; stroke: #000000; stroke-width: 0.5"/>
     </g>
     <g id="line2d_30">
      <g>
       <use xlink:href="#m9faa797893" x="72" y="216" style="stroke: #000000; stroke-width: 0.5"/>
      </g>
     </g>
     <g id="line2d_31">
      <g>
       <use xlink:href="#ma0fcaa4d40" x="518.4" y="216" style="stroke: #000000; stroke-width: 0.5"/>
      </g>
     </g>
     <g id="text_11">
      <!-- $\mathdefault{0.0}$ -->
      <g transform="translate(53.042358 219.299608) scale(0.12 -0.12)">
       <use xlink:href="#CMR17-30" transform="scale(0.996264)"/>
       <use xlink:href="#CMMI12-3a" transform="translate(45.690477 0) scale(0.996264)"/>
       <use xlink:href="#CMR17-30" transform="translate(72.787654 0) scale(0.996264)"/>
      </g>
     </g>
    </g>
    <g id="ytick_4">
     <g id="line2d_32">
      <path d="M 72 129.6 
L 518.4 129.6 
" clip-path="url(#pfe2272f4ac)" style="fill: none; stroke-dasharray: 1,3; stroke-dashoffset: 0; stroke: #000000; stroke-width: 0.5"/>
     </g>
     <g id="line2d_33">
      <g>
       <use xlink:href="#m9faa797893" x="72" y="129.6" style="stroke: #000000; stroke-width: 0.5"/>
      </g>
     </g>
     <g id="line2d_34">
      <g>
       <use xlink:href="#ma0fcaa4d40" x="518.4" y="129.6" style="stroke: #000000; stroke-width: 0.5"/>
      </g>
     </g>
     <g id="text_12">
      <!-- $\mathdefault{0.5}$ -->
      <g transform="translate(53.042358 132.899608) scale(0.12 -0.12)">
       <use xlink:href="#CMR17-30" transform="scale(0.996264)"/>
       <use xlink:href="#CMMI12-3a" transform="translate(45.690477 0) scale(0.996264)"/>
       <use xlink:href="#CMR17-35" transform="translate(72.787654 0) scale(0.996264)"/>
      </g>
     </g>
    </g>
    <g id="ytick_5">
     <g id="line2d_35">
      <path d="M 72 43.2 
L 518.4 43.2 
" clip-path="url(#pfe2272f4ac)" style="fill: none; stroke-dasharray: 1,3; stroke-dashoffset: 0; stroke: #000000; stroke-width: 0.5"/>
     </g>
     <g id="line2d_36">
      <g>
       <use xlink:href="#m9faa797893" x="72" y="43.2" style="stroke: #000000; stroke-width: 0.5"/>
      </g>
     </g>
     <g id="line2d_37">
      <g>
       <use xlink:href="#ma0fcaa4d40" x="518.4" y="43.2" style="stroke: #000000; stroke-width: 0.5"/>
      </g>
     </g>
     <g id="text_13">
      <!-- $\mathdefault{1.0}$ -->
      <g transform="translate(53.042358 46.499608) scale(0.12 -0.12)">
       <use xlink:href="#CMR17-31" transform="scale(0.996264)"/>
       <use xlink:href="#CMMI12-3a" transform="translate(45.690477 0) scale(0.996264)"/>
       <use xlink:href="#CMR17-30" transform="translate(72.787654 0) scale(0.996264)"/>
      </g>
     </g>
    </g>
    <g id="text_14">
     <!-- $u(t)$ -->
     <g transform="translate(35.256945 227.663309) rotate(-90) scale(0.14 -0.14)">
      <defs>
       <path id="CMMI12-75" d="M 2182 370 
C 2266 13 2573 -64 2726 -64 
C 2931 -64 3085 70 3187 287 
C 3296 517 3379 894 3379 913 
C 3379 945 3354 971 3315 971 
C 3258 971 3251 939 3226 843 
C 3110 402 2995 64 2739 64 
C 2547 64 2547 275 2547 358 
C 2547 505 2566 568 2630 837 
C 2675 1009 2720 1181 2758 1360 
L 3021 2401 
C 3066 2561 3066 2574 3066 2593 
C 3066 2689 2989 2753 2893 2753 
C 2707 2753 2662 2593 2624 2433 
C 2560 2184 2214 811 2170 588 
C 2163 588 1914 64 1446 64 
C 1114 64 1050 351 1050 588 
C 1050 952 1229 1462 1395 1890 
C 1472 2095 1504 2178 1504 2305 
C 1504 2580 1306 2816 998 2816 
C 410 2816 173 1890 173 1839 
C 173 1814 198 1782 243 1782 
C 301 1782 307 1807 333 1896 
C 486 2441 736 2682 979 2682 
C 1043 2682 1146 2682 1146 2478 
C 1146 2312 1075 2127 979 1884 
C 698 1124 666 881 666 690 
C 666 38 1158 -64 1421 -64 
C 1830 -64 2054 217 2182 370 
z
" transform="scale(0.015625)"/>
       <path id="CMR17-28" d="M 1958 -1561 
C 1958 -1555 1958 -1542 1939 -1523 
C 1645 -1224 858 -407 858 1581 
C 858 3569 1632 4379 1946 4697 
C 1946 4704 1958 4717 1958 4736 
C 1958 4755 1939 4768 1914 4768 
C 1843 4768 1299 4296 986 3594 
C 666 2887 576 2199 576 1588 
C 576 1128 621 351 1005 -471 
C 1312 -1135 1837 -1600 1914 -1600 
C 1946 -1600 1958 -1587 1958 -1561 
z
" transform="scale(0.015625)"/>
       <path id="CMR17-29" d="M 1683 1581 
C 1683 2040 1638 2817 1254 3639 
C 947 4303 422 4768 346 4768 
C 326 4768 301 4761 301 4729 
C 301 4717 307 4710 314 4697 
C 621 4378 1402 3568 1402 1584 
C 1402 -407 627 -1217 314 -1537 
C 307 -1549 301 -1556 301 -1568 
C 301 -1600 326 -1600 346 -1600 
C 416 -1600 960 -1128 1274 -426 
C 1594 281 1683 969 1683 1581 
z
" transform="scale(0.015625)"/>
      </defs>
      <use xlink:href="#CMMI12-75" transform="scale(0.996264)"/>
      <use xlink:href="#CMR17-28" transform="translate(55.52033 0) scale(0.996264)"/>
      <use xlink:href="#CMMI12-74" transform="translate(90.801097 0) scale(0.996264)"/>
      <use xlink:href="#CMR17-29" transform="translate(126.027428 0) scale(0.996264)"/>
     </g>
    </g>
   </g>
   <g id="text_15">
    <!-- $A = 1.0\,m, b = 0.1\,kg{\cdot}s^{-1}, w = 6.28\,s^{-1}$ -->
    <g transform="translate(180.638023 38.2) scale(0.14 -0.14)">
     <defs>
      <path id="CMMI12-41" d="M 1088 691 
C 864 314 646 186 339 186 
C 269 180 218 180 218 58 
C 218 24 250 0 294 0 
C 410 0 698 0 813 0 
C 998 0 1203 0 1382 0 
C 1421 0 1498 0 1498 122 
C 1498 180 1446 186 1408 186 
C 1261 186 1139 236 1139 388 
C 1139 476 1178 546 1261 685 
L 1747 1479 
L 3379 1479 
C 3386 1423 3386 1373 3392 1316 
C 3411 1152 3488 495 3488 376 
C 3488 186 3162 186 3059 186 
C 2989 186 2918 186 2918 70 
C 2918 0 2976 0 3014 0 
C 3123 0 3251 0 3360 0 
L 3725 0 
C 4115 0 4397 0 4403 0 
C 4448 0 4518 0 4518 122 
C 4518 186 4461 186 4365 186 
C 4013 186 4006 244 3987 434 
L 3597 4404 
C 3584 4531 3558 4544 3488 4544 
C 3424 4544 3386 4531 3328 4435 
L 1088 691 
z
M 1856 1664 
L 3142 3819 
L 3360 1664 
L 1856 1664 
z
" transform="scale(0.015625)"/>
      <path id="CMR17-3d" d="M 4115 2017 
C 4211 2017 4307 2017 4307 2125 
C 4307 2240 4198 2240 4090 2240 
L 512 2240 
C 403 2240 294 2240 294 2125 
C 294 2017 390 2017 486 2017 
L 4115 2017 
z
M 4090 896 
C 4198 896 4307 896 4307 1011 
C 4307 1119 4211 1119 4115 1119 
L 486 1119 
C 390 1119 294 1119 294 1011 
C 294 896 403 896 512 896 
L 4090 896 
z
" transform="scale(0.015625)"/>
      <path id="CMMI12-6d" d="M 1318 1871 
C 1331 1910 1491 2229 1728 2433 
C 1894 2586 2112 2689 2362 2689 
C 2618 2689 2707 2497 2707 2242 
C 2707 2203 2707 2076 2630 1775 
L 2470 1118 
C 2419 926 2298 453 2285 383 
C 2259 287 2221 121 2221 96 
C 2221 6 2291 -64 2387 -64 
C 2579 -64 2611 83 2669 313 
L 3053 1839 
C 3066 1890 3398 2689 4102 2689 
C 4358 2689 4448 2497 4448 2242 
C 4448 1884 4198 1188 4058 805 
C 4000 651 3968 568 3968 453 
C 3968 166 4166 -64 4474 -64 
C 5069 -64 5293 875 5293 913 
C 5293 945 5267 971 5229 971 
C 5171 971 5165 952 5133 843 
C 4986 332 4749 64 4493 64 
C 4429 64 4326 64 4326 269 
C 4326 436 4403 640 4429 710 
C 4544 1018 4832 1773 4832 2145 
C 4832 2528 4608 2816 4122 2816 
C 3693 2816 3347 2574 3091 2197 
C 3072 2542 2861 2816 2381 2816 
C 1811 2816 1510 2415 1395 2255 
C 1376 2618 1114 2816 832 2816 
C 646 2816 499 2727 378 2484 
C 262 2254 173 1865 173 1839 
C 173 1814 198 1782 243 1782 
C 294 1782 301 1788 339 1935 
C 435 2312 557 2689 813 2689 
C 960 2689 1011 2586 1011 2395 
C 1011 2254 947 2005 902 1807 
L 723 1118 
C 698 996 627 709 595 594 
C 550 428 480 128 480 96 
C 480 6 550 -64 646 -64 
C 723 -64 813 -26 864 70 
C 877 102 934 326 966 453 
L 1107 1028 
L 1318 1871 
z
" transform="scale(0.015625)"/>
      <path id="CMMI12-3b" d="M 1248 -31 
C 1248 343 1126 619 864 619 
C 659 619 557 453 557 313 
C 557 172 653 0 870 0 
C 954 0 1024 26 1082 83 
C 1094 96 1101 96 1107 96 
C 1120 96 1120 5 1120 -27 
C 1120 -240 1082 -659 710 -1080 
C 640 -1157 640 -1170 640 -1183 
C 640 -1216 672 -1248 704 -1248 
C 755 -1248 1248 -771 1248 -31 
z
" transform="scale(0.015625)"/>
      <path id="CMMI12-62" d="M 1478 4257 
C 1485 4283 1498 4321 1498 4352 
C 1498 4416 1434 4416 1421 4416 
C 1414 4416 1184 4393 1069 4377 
C 960 4377 864 4358 749 4358 
C 595 4345 550 4339 550 4224 
C 550 4160 614 4160 678 4160 
C 1005 4160 1005 4103 1005 4040 
C 1005 3996 954 3811 928 3696 
L 774 3085 
C 710 2831 346 1387 320 1272 
C 288 1114 288 1005 288 922 
C 288 274 653 -64 1069 -64 
C 1811 -64 2579 888 2579 1814 
C 2579 2401 2246 2816 1766 2816 
C 1434 2816 1133 2542 1011 2414 
L 1478 4257 
z
M 1075 64 
C 870 64 646 217 646 715 
C 646 926 666 1047 781 1494 
C 800 1577 902 1986 928 2069 
C 941 2120 1318 2689 1754 2689 
C 2035 2689 2163 2408 2163 2076 
C 2163 1769 1984 1047 1824 715 
C 1664 370 1370 64 1075 64 
z
" transform="scale(0.015625)"/>
      <path id="CMMI12-6b" d="M 1798 4257 
C 1805 4283 1818 4321 1818 4352 
C 1818 4416 1754 4416 1741 4416 
C 1734 4416 1504 4393 1389 4377 
C 1280 4377 1184 4358 1069 4358 
C 915 4345 870 4339 870 4224 
C 870 4160 934 4160 998 4160 
C 1325 4160 1325 4103 1325 4040 
C 1325 4015 1325 4002 1293 3888 
L 378 248 
C 352 152 352 140 352 101 
C 352 -38 461 -64 525 -64 
C 704 -64 742 77 794 275 
L 1094 1469 
C 1555 1418 1830 1226 1830 920 
C 1830 881 1830 856 1811 760 
C 1786 664 1786 588 1786 556 
C 1786 185 2029 -64 2355 -64 
C 2650 -64 2803 204 2854 294 
C 2989 530 3072 888 3072 913 
C 3072 945 3046 971 3008 971 
C 2950 971 2944 945 2918 843 
C 2829 511 2694 64 2368 64 
C 2240 64 2157 128 2157 370 
C 2157 492 2182 632 2208 728 
C 2234 843 2234 849 2234 926 
C 2234 1303 1894 1514 1306 1590 
C 1536 1731 1766 1980 1856 2076 
C 2221 2484 2470 2689 2765 2689 
C 2912 2689 2950 2650 2995 2612 
C 2758 2586 2669 2420 2669 2293 
C 2669 2139 2790 2088 2880 2088 
C 3053 2088 3206 2235 3206 2440 
C 3206 2625 3059 2816 2771 2816 
C 2419 2816 2131 2567 1677 2056 
C 1613 1980 1376 1737 1139 1648 
L 1798 4257 
z
" transform="scale(0.015625)"/>
      <path id="CMMI12-67" d="M 2163 811 
C 2138 709 2125 683 2042 588 
C 1779 249 1510 128 1312 128 
C 1101 128 902 294 902 734 
C 902 1073 1094 1788 1235 2076 
C 1421 2433 1709 2689 1978 2689 
C 2400 2689 2483 2165 2483 2127 
L 2464 2037 
L 2163 811 
z
M 2560 2395 
C 2477 2580 2298 2816 1978 2816 
C 1280 2816 486 1941 486 990 
C 486 326 890 0 1299 0 
C 1638 0 1939 268 2054 396 
L 1914 -171 
C 1824 -516 1786 -674 1555 -894 
C 1293 -1152 1050 -1152 909 -1152 
C 717 -1152 557 -1139 397 -1089 
C 602 -1033 653 -858 653 -789 
C 653 -689 576 -588 435 -588 
C 282 -588 115 -714 115 -922 
C 115 -1180 378 -1280 922 -1280 
C 1747 -1280 2176 -753 2259 -410 
L 2970 2435 
C 2989 2511 2989 2524 2989 2536 
C 2989 2625 2918 2695 2822 2695 
C 2669 2695 2579 2567 2560 2395 
z
" transform="scale(0.015625)"/>
      <path id="CMSY10-1" d="M 1229 1619 
C 1229 1805 1075 1958 890 1958 
C 704 1958 550 1805 550 1619 
C 550 1433 704 1280 890 1280 
C 1075 1280 1229 1433 1229 1619 
z
" transform="scale(0.015625)"/>
      <path id="CMMI12-73" d="M 1459 1280 
C 1568 1261 1741 1223 1779 1216 
C 1862 1192 2150 1090 2150 783 
C 2150 586 1971 70 1229 70 
C 1094 70 614 70 486 436 
C 742 404 870 603 870 745 
C 870 880 781 950 653 950 
C 512 950 326 841 326 552 
C 326 173 710 -64 1222 -64 
C 2195 -64 2483 651 2483 984 
C 2483 1079 2483 1258 2278 1462 
C 2118 1616 1965 1648 1619 1718 
C 1446 1756 1171 1814 1171 2101 
C 1171 2229 1286 2689 1894 2689 
C 2163 2689 2426 2589 2490 2368 
C 2208 2368 2195 2125 2195 2119 
C 2195 1984 2317 1946 2374 1946 
C 2464 1946 2643 2015 2643 2281 
C 2643 2545 2400 2816 1901 2816 
C 1062 2816 838 2160 838 1899 
C 838 1414 1312 1312 1459 1280 
z
" transform="scale(0.015625)"/>
      <path id="CMMI12-77" d="M 2202 390 
C 2342 6 2739 -64 2982 -64 
C 3469 -64 3757 358 3936 798 
C 4083 1169 4320 2012 4320 2389 
C 4320 2778 4122 2816 4064 2816 
C 3910 2816 3770 2663 3770 2535 
C 3770 2459 3814 2414 3846 2389 
C 3904 2331 4070 2159 4070 1827 
C 4070 1609 3891 1009 3757 709 
C 3578 319 3341 64 3008 64 
C 2650 64 2534 332 2534 626 
C 2534 811 2592 1035 2618 1143 
L 2886 2216 
C 2918 2344 2976 2567 2976 2593 
C 2976 2689 2899 2753 2803 2753 
C 2618 2753 2573 2593 2534 2440 
C 2470 2191 2202 1111 2176 971 
C 2150 862 2150 792 2150 651 
C 2150 498 1946 255 1939 243 
C 1869 172 1766 64 1568 64 
C 1062 64 1062 543 1062 651 
C 1062 856 1107 1137 1395 1897 
C 1472 2095 1504 2178 1504 2305 
C 1504 2574 1312 2816 998 2816 
C 410 2816 173 1890 173 1839 
C 173 1814 198 1782 243 1782 
C 301 1782 307 1807 333 1896 
C 493 2454 742 2682 979 2682 
C 1043 2682 1146 2682 1146 2478 
C 1146 2446 1146 2312 1037 2031 
C 736 1233 672 971 672 728 
C 672 57 1222 -64 1549 -64 
C 1658 -64 1946 -64 2202 390 
z
" transform="scale(0.015625)"/>
      <path id="CMR17-36" d="M 678 2176 
C 678 3690 1395 4032 1811 4032 
C 1946 4032 2272 4009 2400 3776 
C 2298 3776 2106 3776 2106 3553 
C 2106 3381 2246 3323 2336 3323 
C 2394 3323 2566 3348 2566 3560 
C 2566 3954 2246 4179 1805 4179 
C 1043 4179 243 3390 243 1984 
C 243 253 966 -128 1478 -128 
C 2099 -128 2688 427 2688 1283 
C 2688 2081 2170 2662 1517 2662 
C 1126 2662 838 2407 678 1960 
L 678 2176 
z
M 1478 25 
C 691 25 691 1200 691 1436 
C 691 1896 909 2560 1504 2560 
C 1613 2560 1926 2560 2138 2120 
C 2253 1870 2253 1609 2253 1289 
C 2253 944 2253 690 2118 434 
C 1978 171 1773 25 1478 25 
z
" transform="scale(0.015625)"/>
      <path id="CMR17-38" d="M 1741 2264 
C 2144 2467 2554 2773 2554 3263 
C 2554 3841 1990 4179 1472 4179 
C 890 4179 378 3759 378 3180 
C 378 3021 416 2747 666 2505 
C 730 2442 998 2251 1171 2130 
C 883 1983 211 1634 211 934 
C 211 279 838 -128 1459 -128 
C 2144 -128 2720 362 2720 1010 
C 2720 1590 2330 1857 2074 2029 
L 1741 2264 
z
M 902 2822 
C 851 2854 595 3051 595 3351 
C 595 3739 998 4032 1459 4032 
C 1965 4032 2336 3676 2336 3262 
C 2336 2669 1670 2331 1638 2331 
C 1632 2331 1626 2331 1574 2370 
L 902 2822 
z
M 2080 1519 
C 2176 1449 2483 1240 2483 851 
C 2483 381 2010 25 1472 25 
C 890 25 448 438 448 940 
C 448 1443 838 1862 1280 2060 
L 2080 1519 
z
" transform="scale(0.015625)"/>
     </defs>
     <use xlink:href="#CMMI12-41" transform="scale(0.996264)"/>
     <use xlink:href="#CMR17-3d" transform="translate(100.801894 0) scale(0.996264)"/>
     <use xlink:href="#CMR17-31" transform="translate(200.190691 0) scale(0.996264)"/>
     <use xlink:href="#CMMI12-3a" transform="translate(245.881168 0) scale(0.996264)"/>
     <use xlink:href="#CMR17-30" transform="translate(272.978345 0) scale(0.996264)"/>
     <use xlink:href="#CMMI12-6d" transform="translate(335.273228 0) scale(0.996264)"/>
     <use xlink:href="#CMMI12-3b" transform="translate(420.600452 0) scale(0.996264)"/>
     <use xlink:href="#CMMI12-62" transform="translate(464.302034 0) scale(0.996264)"/>
     <use xlink:href="#CMR17-3d" transform="translate(533.451917 0) scale(0.996264)"/>
     <use xlink:href="#CMR17-30" transform="translate(632.840715 0) scale(0.996264)"/>
     <use xlink:href="#CMMI12-3a" transform="translate(678.531192 0) scale(0.996264)"/>
     <use xlink:href="#CMR17-31" transform="translate(705.628369 0) scale(0.996264)"/>
     <use xlink:href="#CMMI12-6b" transform="translate(767.923251 0) scale(0.996264)"/>
     <use xlink:href="#CMMI12-67" transform="translate(822.002452 0) scale(0.996264)"/>
     <use xlink:href="#CMSY10-1" transform="translate(872.287941 0) scale(0.996264)"/>
     <use xlink:href="#CMMI12-73" transform="translate(899.962026 0) scale(0.996264)"/>
     <use xlink:href="#CMSY10-0" transform="translate(945.912073 36.153639) scale(0.697382)"/>
     <use xlink:href="#CMR17-31" transform="translate(1000.153067 36.153639) scale(0.697382)"/>
     <use xlink:href="#CMMI12-3b" transform="translate(1032.634381 0) scale(0.996264)"/>
     <use xlink:href="#CMMI12-77" transform="translate(1076.335963 0) scale(0.996264)"/>
     <use xlink:href="#CMR17-3d" transform="translate(1176.422887 0) scale(0.996264)"/>
     <use xlink:href="#CMR17-36" transform="translate(1275.811684 0) scale(0.996264)"/>
     <use xlink:href="#CMMI12-3a" transform="translate(1321.502161 0) scale(0.996264)"/>
     <use xlink:href="#CMR17-32" transform="translate(1348.599338 0) scale(0.996264)"/>
     <use xlink:href="#CMR17-38" transform="translate(1394.289815 0) scale(0.996264)"/>
     <use xlink:href="#CMMI12-73" transform="translate(1456.584698 0) scale(0.996264)"/>
     <use xlink:href="#CMSY10-0" transform="translate(1502.534745 36.153639) scale(0.697382)"/>
     <use xlink:href="#CMR17-31" transform="translate(1556.775738 36.153639) scale(0.697382)"/>
    </g>
   </g>
  </g>
 </g>
 <defs>
  <clipPath id="pfe2272f4ac">
   <rect x="72" y="43.2" width="446.4" height="345.6"/>
  </clipPath>
 </defs>
</svg>
